<svg xmlns="http://www.w3.org/2000/svg" width="2046" height="729" fill="none"><path stroke="url(#a)" stroke-linecap="round" stroke-linejoin="round" stroke-miterlimit="10" stroke-width="1.2" d="M2012.09 5.324 1996.2 0m15.89 5.324h-47.1m47.1 0 16.43 5.5m-16.43-5.5h33.36M1996.2 0l5.78.002 5.73.012 5.6.032 5.43.064 5.19.103 4.9.156 4.56.217 4.22.276 3.63.382 3.3.443.91.155v3.482M1996.2 0h-46.34m0 0h-46.35m46.35 0 15.13 5.324M1903.51 0h-46.34m46.34 0 14.38 5.324M1857.17 0h-46.34m46.34 0 13.62 5.324M1810.83 0h-46.34m46.34 0 12.87 5.324M1764.49 0h-46.35m46.35 0 12.11 5.324M1718.14 0h-46.34m46.34 0 11.36 5.324M1671.8 0h-46.34m46.34 0 10.6 5.324M1625.46 0h-46.35m46.35 0 9.84 5.324M1579.11 0h-46.34m46.34 0 9.09 5.324M1532.77 0h-46.34m46.34 0 8.33 5.324M1486.43 0h-46.34m46.34 0 7.57 5.324M1440.09 0h-46.35m46.35 0 1.68 1.315 2.55 1.992 2.58 2.017M1393.74 0h-46.34m46.34 0 1.5 1.315 4.56 4.009M1347.4 0h-46.34m46.34 0 5.3 5.324M1301.06 0h-46.35m46.35 0 1.68 1.977 1.71 2 .57.672.58.675M1254.71 0h-46.34m46.34 0 1.41 1.977.47.663.48.667 1.43 2.017M1208.37 0h-46.34m46.34 0 3.03 5.324M1162.03 0l.28.656.28.66 1.42 3.333.29.675M1162.03 0h-46.34m0 0h-46.35m46.35 0 1.51 5.324M1069.34 0H1023m46.34 0 .28 1.977.48 3.347M1023 0h-46.343M1023 0v5.324M976.657 0h-46.343m46.343 0-.281 1.977-.476 3.347M930.314 0h-46.343m46.343 0-1.513 5.324M883.971 0l-.28.656-.28.66-1.422 3.333-.288.675M883.971 0h-46.342m0 0h-46.344m46.344 0-2.644 4.649-.384.675M791.285 0h-46.342m46.342 0-1.403 1.977-.473.663-.95 1.336-.477.673-.481.675M744.943 0H698.6m46.343 0-1.685 1.977-1.707 2-.573.672-.577.675M698.6 0h-46.342M698.6 0l-5.297 5.324M652.258 0h-46.344m46.344 0-1.496 1.315-4.559 4.009M605.914 0h-46.342m46.342 0-6.811 5.324M559.572 0h-46.343m46.343 0-7.569 5.324M513.229 0h-46.343m46.343 0-8.325 5.324M466.886 0h-46.343m46.343 0-9.082 5.324M420.543 0h-46.342m46.342 0-9.839 5.324M374.201 0h-46.343m46.343 0-10.597 5.324M327.858 0h-46.344m46.344 0-11.353 5.324M281.514 0h-46.342m46.342 0-12.109 5.324M235.172 0h-46.343m46.343 0-12.867 5.324M188.829 0h-46.343m46.343 0-13.624 5.324M142.486 0H96.143m46.343 0-14.379 5.324M96.143 0H49.801m46.342 0L81.007 5.324M49.8 0l-5.784.002-5.723.012-5.604.032L27.26.11l-5.193.103-4.903.156-4.553.217-4.226.276-3.626.382-3.302.443-.907.155v3.482M49.8 0 33.907 5.324m94.2 0h47.098m-47.098 0h-47.1m47.1 0-14.859 5.5m61.957-5.5-14.075 5.5m14.075-5.5h47.1m94.2 0h47.099m-47.099 0h-47.1m47.1 0-2.896 1.358-8.834 4.141m58.829-5.5-10.947 5.5m10.947-5.5h47.1m94.2 0h47.099m-47.099 0h-47.1m47.1 0-2.124 1.359-1.069.682-5.41 3.46m55.702-5.5L551.04 6l-.968.681-5.888 4.141m7.819-5.5h47.1m94.2 0-.675.678-4.8 4.822m5.475-5.5h47.098m-47.098 0h-47.1m94.198 0-1.157 1.359-.584.682-.585.687-2.365 2.772m4.691-5.5h47.1m94.2 0h47.1m-47.1 0h-47.1m47.1 0-2.345 5.5m49.445-5.5-.193.678-.193.681-.195.682-.588 2.067-.395 1.393m1.564-5.5H975.9m94.2 0h47.1m-47.1 0H1023m47.1 0 .78 5.5m46.32-5.5.19.677.2.681.19.682.98 3.46m-1.56-5.5h47.1m94.2 0h47.1m-47.1 0h-47.1m47.1 0 .96 1.358 1.96 2.749.49.695.5.697m43.19-5.5 1.16 1.359.58.682.58.687 2.37 2.772m-4.69-5.5h47.1m94.2 0h47.1m-47.1 0h-47.1m47.1 0 1.73 1.359.88.682 4.42 3.46m40.07-5.5.96.677.97.681 5.89 4.141m-7.82-5.5h47.1m94.2 0h47.1m-47.1 0h-47.1m47.1 0 2.51 1.359 1.26.682 6.39 3.46m36.94-5.5 10.94 5.5m-10.94-5.5h47.1m94.2 0h47.09m-47.09 0h-47.1m47.1 0 13.29 5.5m33.8-5.5 14.08 5.5m-14.08-5.5h47.1M.386 55.11H.55m47.241 0 17.982-7.027M47.792 55.11l-18.671 7.295m18.671-7.295h54.178m-54.178 0H.551m65.223-7.027H12.595m53.18 0 17.331-6.772m-17.332 6.772h53.179m-106.358 0 18.295-6.772m-18.295 6.772H.551m12.044 0L.551 52.541m65.008-24.064h50.392m-50.392 0 16.442-6.087M65.56 28.477H15.17m50.39 0L48.532 34.78m67.419-6.303 15.578-6.087m-15.578 6.087-16.13 6.303m16.13-6.303h50.392M82.002 22.39h49.527m-49.528 0 15.888-5.88M82 22.39H32.476m99.053 0h49.526m-49.526 0 15.05-5.88M.032 166.012h.519m43.197 0 23.188-11.649m-23.188 11.649-24.34 12.229m24.34-12.229h69.947m-69.947 0H.551m66.385-11.649 22.116-11.11m-22.116 11.11h68.29m-68.29 0H.551m21.79-11.11h66.711m-66.71 0 22.623-10.608m-22.623 10.608H.55m21.79 0L.552 153.471m66.037-30.964h63.76m-63.76 0 20.688-9.7m-20.688 9.7H2.828m63.76 0-21.623 10.139m85.383-10.139 19.31-9.7m-19.31 9.7-20.181 10.139m20.181-10.139h63.762m-106.834-9.7h62.382m-62.382 0H24.895m62.38 0 19.813-9.29m42.57 9.29 18.49-9.29m-18.49 9.29h62.381M144.296 86.07h58.58m-58.58 0 17.494-8.202m-17.494 8.202h-58.58m58.58 0-18.218 8.543m76.798-8.543 16.328-8.202m-16.328 8.202-17.003 8.543m17.003-8.543h58.581m-99.667-8.202h57.414m-57.414 0h-57.414m57.414 0 16.811-7.882m40.603 7.882 15.69-7.882m-15.69 7.882h57.414M210.326 55.11h54.178m-54.178 0 14.986-7.027m-14.986 7.027h-54.178m54.178 0-15.559 7.295m69.737-7.295 13.987-7.027m-13.987 7.027-14.521 7.295m14.521-7.295h54.179m-93.371-7.027h53.179m-53.179 0h-53.179m53.179 0 14.443-6.772m38.736 6.772 13.48-6.772m-13.48 6.772h53.179m-64.544-19.606h50.391m-50.391 0 12.98-6.087m-12.98 6.087h-50.391m50.391 0-13.442 6.303m63.833-6.303 12.115-6.087m-12.115 6.087-12.546 6.303m12.546-6.303h50.392m-87.803-6.087h49.526m-49.526 0 12.544-5.88m-12.544 5.88H230.58m99.052 0h49.527m-49.527 0 11.707-5.88M36.386 367.974l32.636-22.954m-32.636 22.954-34.948 24.58m34.948-24.58h98.661m-98.66 0H.55m68.47-22.954 30.547-21.483M69.021 345.02h95.397m-95.397 0H.55m67.808-60.573h86.786m-86.786 0 27.889-17.831m-27.889 17.831-29.618 18.94m29.62-18.939H.55m154.595 0 25.352-17.831m-25.352 17.831-26.927 18.939m26.927-18.939h86.786M96.248 266.617h84.249m-84.25 0h-84.25m84.25 0 26.306-16.821m57.944 16.821 23.915-16.821m-23.915 16.821h84.251m-93.824-47.749h77.462m-77.462 0 22.288-14.25m-22.288 14.25H93.462m77.462 0-23.518 15.038m100.98-15.038 20.262-14.25m-20.262 14.25-21.381 15.038m21.381-15.038h77.461m-132.635-14.25h75.436m-75.436 0h-75.435m75.435 0 21.151-13.524m54.285 13.524 19.228-13.524m-19.228 13.524h75.434m-90.494-38.605h69.947m-69.947 0 18.22-11.649m-18.22 11.649h-69.946m69.946 0-19.124 12.229m89.071-12.229 16.563-11.649m-16.563 11.649-17.387 12.229m17.387-12.229h69.946m-121.673-11.649h68.29m-68.29 0h-68.291m68.291 0 17.376-11.11m50.914 11.11 15.796-11.11m-15.796 11.11h68.29m-86.756-31.857h63.76m-63.76 0 15.17-9.7m-15.17 9.7H257.87m63.762 0-15.858 10.139m79.618-10.139 13.792-9.7m-13.792 9.7-14.415 10.139m14.415-10.139h63.76m-112.35-9.7h62.382m-62.382 0h-62.381m62.381 0 14.529-9.29m47.853 9.29 13.208-9.29m-13.208 9.29h62.382M378.617 86.07h58.58m-58.58 0 12.829-8.202m-12.829 8.202h-58.58m58.58 0-13.36 8.543m71.94-8.543 1.485-1.043 10.178-7.159m-11.663 8.202-12.145 8.543m12.145-8.543h58.581m-104.332-8.202h57.414m-57.414 0h-57.414m57.414 0 12.328-7.882m45.086 7.882 11.207-7.882m-11.207 7.882h57.414M427.039 55.11h54.179m-54.179 0 10.99-7.027m-10.99 7.027h-54.178m54.178 0-11.41 7.295m65.589-7.295 9.99-7.027m-9.99 7.027-3.844 2.703-6.53 4.592m10.374-7.295h54.178m-97.367-7.027h53.179m-53.179 0H384.85m53.179 0 10.591-6.772m42.588 6.772 9.628-6.772m-9.628 6.772h53.179m-75.695-19.606h50.392m-50.392 0 9.519-6.087m-9.519 6.087h-50.391m50.391 0-9.857 6.303m60.249-6.303 6.519-4.584 1.069-.754 1.066-.749m-8.654 6.087-8.962 6.303m8.962-6.303h50.392m-91.265-6.087h49.527m-49.527 0 9.198-5.88m-9.198 5.88h-49.526m99.053 0h49.526m-49.526 0 8.361-5.88M72.133 629.452h135.839m-135.84 0 42.773-42.976m-42.772 42.976-47.001 47.226m47-47.226-71.581.001m207.421-.001 36.662-42.976m-36.662 42.976-40.287 47.226m40.287-47.226h135.837m-228.904-42.976h129.729m-129.729 0 39.091-39.276m-39.091 39.276H.551m244.083 0 33.505-39.276m-33.505 39.276h129.727M222.88 477.988h114.304m-114.304 0 30.503-30.649m-30.503 30.649H108.578m114.302 0-33.021 33.178m147.325-33.178 26.144-30.649m-26.144 30.649-28.304 33.178m28.304-33.178h114.302m-198.103-30.649h109.945m-109.945 0H143.438m109.945 0 28.263-28.397m81.682 28.397 24.226-28.397m-24.226 28.397h109.946m-140.903-79.364h98.661m-98.661 0 22.845-22.954m-22.845 22.954h-98.662m98.662 0-24.465 24.58m123.126-24.58 19.582-22.954m-19.582 22.954-20.969 24.58m20.969-24.58h98.661m-174.477-22.954h95.398m-95.398 0h-95.399m95.399 0 21.382-21.483m74.016 21.483 18.327-21.483m-18.327 21.483h95.397m-130.51-60.573h86.786m-86.786 0 17.748-17.831m-17.748 17.831h-86.785m86.785 0-18.848 18.939m105.634-18.939 15.212-17.831m-15.212 17.831-16.156 18.939m16.156-18.939h86.786m-155.824-17.831h84.25m-84.25 0h-84.251m84.251 0 16.74-16.821m67.51 16.821 14.348-16.821m-14.348 16.821h84.25M480.77 218.868h77.462m-77.462 0 14.183-14.25m-14.183 14.25h-77.462m77.462 0-14.967 15.038m92.429-15.038 12.156-14.25m-12.156 14.25-12.829 15.038m12.829-15.038h77.461m-140.74-14.25h75.435m-75.435 0h-75.436m75.436 0 13.46-13.524m61.975 13.524 11.537-13.524m-11.537 13.524h75.436m-112.449-38.605h69.946m-69.946 0 11.594-11.649m-11.594 11.649h-69.948m69.948 0-12.171 12.229m82.117-12.229 9.938-11.649m-9.938 11.649-10.432 12.229m10.432-12.229h69.946m-128.298-11.649h68.29m-68.29 0h-68.291m68.291 0 11.057-11.11m57.233 11.11 9.478-11.11m-9.478 11.11h68.29m-104.875-31.857h63.762m-63.762 0 9.655-9.7m-9.655 9.7h-63.76m63.76 0-10.09 10.139m73.852-10.139 8.274-9.7m-8.274 9.7-8.65 10.139m8.65-10.139h63.76m-117.867-9.7h62.381m-62.381 0h-62.382m62.382 0 9.246-9.29m53.135 9.29 7.925-9.29m-7.925 9.29h62.382M612.938 86.07h58.581m-58.581 0 8.164-8.202m-8.164 8.202h-58.58m58.58 0-8.502 8.543m67.083-8.543-.895 1.049-6.393 7.494m7.288-8.543 6.997-8.202m-6.997 8.202h58.58m-108.997-8.202h57.414m-57.414 0h-57.414m57.414 0 7.845-7.882m49.569 7.882 6.724-7.882m-6.724 7.882h57.414M643.752 55.11h54.178m-54.178 0 6.993-7.027m-6.993 7.027h-54.178m54.178 0-7.26 7.295m61.438-7.295 5.995-7.027m-5.995 7.027-2.305 2.703-1.557 1.824-2.361 2.768m6.223-7.295h54.178m-101.363-7.027h53.18m-53.18 0h-53.179m53.179 0 6.74-6.772m46.44 6.772 2.191-2.569 1.445-1.693 2.141-2.51m-5.777 6.772h53.179m-86.845-19.606h50.391m-50.391 0 4.563-4.584 1.494-1.503m-6.057 6.087h-50.392m50.392 0-5.477 5.503-.796.8m56.664-6.303 3.912-4.584.641-.754.64-.749m-5.193 6.087-2.665 3.123-2.711 3.18m5.376-6.303h50.392m-94.726-6.087h49.527m-49.527 0 5.854-5.88m-5.854 5.88H626.79m99.053 0h49.526m-49.526 0 5.017-5.88M615.486 629.452h135.838m-135.838 0 18.33-42.976m-18.33 42.976H479.648m135.838 0-20.143 47.226m155.981-47.226 12.221-42.976m-12.221 42.976-13.429 47.226m13.429-47.226h135.838m-253.346-42.976h129.729m-129.729 0H504.089m129.727 0L650.57 547.2m112.975 39.276 11.168-39.276m-11.168 39.276h129.728M680.092 477.988h114.302m-114.302 0 13.072-30.649m-13.072 30.649H565.788m114.304 0-14.153 33.178m128.455-33.178 8.716-30.649m-8.716 30.649-9.434 33.178m9.434-33.178h114.304m-215.534-30.649H803.11m-109.946 0H583.219m109.945 0 12.113-28.397m97.833 28.397 8.075-28.397m-8.075 28.397h109.945m-186.039-79.364h98.661m-98.661 0 9.791-22.954m-9.791 22.954h-98.661m98.661 0-10.484 24.58m109.145-24.58 6.528-22.954m-6.528 22.954-6.989 24.58m6.989-24.58h98.662m-187.532-22.954h95.398m-95.398 0h-95.398m95.398 0 9.164-21.483m86.234 21.483 6.109-21.483m-6.109 21.483h95.397m-164.958-60.573h86.785m-86.785 0 7.606-17.831m-7.606 17.831h-86.786m86.786 0-8.078 18.939m94.863-18.939 5.07-17.831m-5.07 17.831-5.385 18.939m5.385-18.939h86.785M770.25 266.617h84.249m-84.249 0H686m84.25 0 7.174-16.821m77.075 16.821 4.783-16.821m-4.783 16.821h84.251m-148.135-47.749h77.463m-77.463 0 6.079-14.25m-6.079 14.25h-77.461m77.461 0-6.413 15.038m83.876-15.038 4.051-14.25m-4.051 14.25-4.276 15.038m4.276-15.038h77.461m-148.845-14.25h75.435m-75.435 0h-75.435m75.435 0 5.769-13.524m69.666 13.524 3.846-13.524m-3.846 13.524h75.436M813.16 166.013h69.947m-69.947 0 4.969-11.649m-4.969 11.649h-69.946m69.946 0-5.215 12.229m75.162-12.229 3.313-11.649m-3.313 11.649-3.478 12.229m3.478-12.229h69.947m-134.925-11.649h68.291m-68.291 0h-68.29m68.29 0 1.804-4.227 2.935-6.883m63.552 11.11 3.159-11.11m-3.159 11.11h68.29m-122.992-31.857h63.76m-63.76 0 4.138-9.7m-4.138 9.7h-63.762m63.762 0-3.225 7.562-1.1 2.577m68.085-10.139 1.049-3.688 1.71-6.012m-2.759 9.7-2.883 10.139m2.883-10.139h63.762m-123.384-9.7.503-1.183 3.459-8.107m-3.962 9.29h62.381m-62.381 0h-62.383m124.764 0 1.004-3.53.33-1.165.33-1.157.977-3.438m-2.641 9.29h62.382M847.259 86.07h58.58m-58.58 0 1.767-4.142.437-1.022.433-1.019.433-1.011.429-1.008m-3.499 8.202h-58.58m58.58 0-3.643 8.543m62.223-8.543 1.758-6.182.289-1.012.286-1.008m-2.333 8.202-2.428 8.543m2.428-8.543h58.581m-113.662-8.202h57.414m-57.414 0h-57.414m57.414 0 2.117-4.963.417-.978.828-1.941m54.052 7.882 1.411-4.963.279-.978.276-.973.275-.968m-2.241 7.882h57.414M860.466 55.11h54.178m-54.178 0 2.997-7.027m-2.997 7.027h-54.179m54.179 0-.768 1.797-1.164 2.73-1.18 2.768m57.29-7.295-.256.896-1.556 5.472-.263.927m2.075-7.295 1.998-7.027m-1.998 7.027h54.178m-105.359-7.027h53.179m-53.179 0h-53.179m53.179 0 2.888-6.772m50.291 6.772.73-2.569.241-.848.241-.844.714-2.51m-1.926 6.771h53.179m-97.995-19.606h50.39m-50.39 0 1.955-4.584.64-1.503m-2.595 6.087h-50.392m50.392 0-.998 2.337-.335.786-.337.79-1.02 2.39m53.08-6.303.221-.773.435-1.535.434-1.52.641-2.259m-1.731 6.087-.888 3.123-.224.79-.452 1.59-.227.8m1.791-6.303h50.392m-98.187-6.087h49.526m-49.526 0 2.199-5.157.31-.724m-2.509 5.881h-49.526m99.052 0 .213-.746.211-.743.211-.74.209-.736.623-2.192.206-.724m-1.673 5.881h49.527m185.366 607.062h135.84m-135.84 0-6.11-42.976m6.11 42.976H1023m135.84 0 6.71 47.226m129.13-47.226-12.22-42.976m12.22 42.976 13.42 47.226m-13.42-47.226h135.83m-277.78-42.976h129.73m-129.73 0H1023m129.73 0-5.59-39.276m135.32 39.276-11.17-39.276m11.17 39.276h129.72M1137.3 477.988h114.31m-114.31 0-4.35-30.649m4.35 30.649H1023m114.3 0 4.72 33.178m109.59-33.178-8.72-30.649m8.72 30.649 9.43 33.178m-9.43-33.178h114.3m-232.96-30.649h109.94m-109.94 0H1023m109.95 0-4.04-28.397m113.98 28.397-8.07-28.397m8.07 28.397h109.95m-231.18-79.364h98.66m-98.66 0-3.26-22.954m3.26 22.954H1023m98.66 0 3.5 24.58m95.16-24.58-6.52-22.954m6.52 22.954 6.99 24.58m-6.99-24.58h98.66m-200.58-22.954h95.4m-95.4 0H1023m95.4 0-3.06-21.483m98.46 21.483-6.11-21.483m6.11 21.483h95.39m-199.4-60.573h86.78m-86.78 0-2.54-17.831m2.54 17.831H1023m86.79 0 2.69 18.939m84.09-18.939-5.07-17.831m5.07 17.831 5.39 18.939m-5.39-18.939h86.79m-176.11-17.831h84.25m-84.25 0H1023m84.25 0-2.39-16.821m86.64 16.821-4.78-16.821m4.78 16.821h84.25m-175.29-47.749h77.46m-77.46 0-2.02-14.25m2.02 14.25H1023m77.46 0 2.14 15.038m75.32-15.038-4.05-14.25m4.05 14.25 4.28 15.038m-4.28-15.038h77.46m-156.94-14.25h75.43m-75.43 0H1023m75.44 0-1.93-13.524m77.36 13.524-3.84-13.524m3.84 13.524h75.44m-156.36-38.605h69.94m-69.94 0-1.66-11.649m1.66 11.649H1023m69.95 0 1.74 12.229m68.2-12.229-3.31-11.649m3.31 11.649 3.48 12.229m-3.48-12.229h69.95m-141.55-11.649h68.29m-68.29 0H1023m68.29 0-1.58-11.11m69.87 11.11-3.16-11.11m3.16 11.11h68.29m-141.11-31.857h63.76m-63.76 0-1.38-9.7m1.38 9.7H1023m63.76 0 1.44 10.139m62.32-10.139-2.42-8.51-.34-1.19m2.76 9.7 2.88 10.139m-2.88-10.139h63.76m-128.9-9.7-.17-1.183-1.15-8.107m1.32 9.29h62.38m-62.38 0H1023m124.76 0-1-3.53-.33-1.165-.33-1.157-.98-3.438m2.64 9.29h62.38M1081.58 86.07h58.58m-58.58 0-1.17-8.202m1.17 8.202H1023m58.58 0 .45 3.163.15 1.065.15 1.07.31 2.158.16 1.087m57.36-8.543-1.76-6.182-.57-2.02m2.33 8.202 2.43 8.543m-2.43-8.543h58.58m-118.33-8.202h57.42m-57.42 0H1023m57.41 0-1.12-7.882m58.54 7.882-1.41-4.963-.28-.978-.28-.973-.27-.968m2.24 7.882h57.41M1077.18 55.11h54.18m-54.18 0-1-7.027m1 7.027H1023m54.18 0 1.04 7.295m53.14-7.295.25.896 1.56 5.472.26.927m-2.07-7.295-2-7.027m2 7.027h54.17m-109.35-7.027h53.18m-53.18 0H1023m53.18 0-.96-6.772m54.14 6.772-.73-2.569-.24-.848-.24-.844-.72-2.51m1.93 6.771h53.18m-109.15-19.606h50.39m-50.39 0-.86-6.087m.86 6.087H1023m50.39 0 .9 6.303m49.49-6.303-.22-.773-.43-1.535-.22-.762-.43-1.514-.21-.754-.22-.749m1.73 6.087.89 3.123.23.79.45 1.59.23.8m-1.8-6.303h50.39m-101.64-6.087-.11-.746-.11-.743-.1-.74-.52-3.652m.84 5.881h49.52m-49.52 0H1023m99.05 0h49.53m-49.53 0-.42-1.489-.21-.74-.21-.736-.62-2.192-.21-.724m581.81 612.943h135.84m-135.84 0-30.55-42.976m30.55 42.976h-135.84m135.84 0 33.57 47.226m102.27-47.226-36.66-42.976m36.66 42.976 40.29 47.226m-40.29-47.226h135.84m-302.23-42.976h129.73m-129.73 0h-129.73m129.73 0-27.92-39.276m157.65 39.276-33.51-39.276m33.51 39.276h129.72m-336.58-108.488h114.31m-114.31 0-21.78-30.649m21.78 30.649h-114.3m114.3 0 23.59 33.178m90.72-33.178-26.15-30.649m26.15 30.649 28.3 33.178m-28.3-33.178h114.3m-250.39-30.649h109.94m-109.94 0h-109.95m109.95 0-20.19-28.397m130.13 28.397-24.22-28.397m24.22 28.397h109.95m-276.31-79.364h98.66m-98.66 0-16.32-22.954m16.32 22.954h-98.66m98.66 0 17.47 24.58m81.19-24.58-19.58-22.954m19.58 22.954 20.97 24.58m-20.97-24.58h98.66m-213.64-22.954h95.4m-95.4 0h-95.4m95.4 0-15.27-21.483m110.67 21.483-18.33-21.483m18.33 21.483h95.39m-233.85-60.573h86.78m-86.78 0-12.68-17.831m12.68 17.831h-86.79m86.79 0 13.46 18.939m73.32-18.939-15.21-17.831m15.21 17.831 16.16 18.939m-16.16-18.939h86.79m-186.25-17.831h84.25m-84.25 0H1360m84.25 0-11.96-16.821m96.21 16.821-14.35-16.821m14.35 16.821h84.25m-202.44-47.749h77.46m-77.46 0-10.13-14.25m10.13 14.25h-77.46m77.46 0 10.69 15.038m66.77-15.038-12.16-14.25m12.16 14.25 12.83 15.038m-12.83-15.038h77.46m-165.05-14.25h75.43m-75.43 0h-75.44m75.44 0-9.62-13.524m85.05 13.524-11.53-13.524m11.53 13.524h75.44m-178.32-38.605h69.95m-69.95 0-8.28-11.649m8.28 11.649h-69.94m69.94 0 8.7 12.229m61.25-12.229-9.94-11.649m9.94 11.649 10.43 12.229m-10.43-12.229h69.95m-148.18-11.649h68.29m-68.29 0h-68.29m68.29 0-7.9-11.11m76.19 11.11-9.48-11.11m9.48 11.11h68.29m-159.23-31.857.89 1.243.89 1.249 5.43 7.647m-7.21-10.139h63.76m-63.76 0-6.89-9.7m6.89 9.7h-63.76m127.52 0-8.27-9.7m8.27 9.7 8.65 10.139m-8.65-10.139h63.77m-134.42-9.7h62.38m-62.38 0h-62.38m62.38 0-6.61-9.29m68.99 9.29-7.93-9.29m7.93 9.29h62.38M1315.9 86.07h58.58m-58.58 0-5.83-8.202m5.83 8.202h-58.58m58.58 0 6.07 8.543m52.51-8.543-4.41-5.164-2.59-3.038m7 8.202 7.29 8.543m-7.29-8.543h58.58m-122.99-8.202h57.41m-57.41 0h-57.41m57.41 0-4.91-6.914-.69-.968m63.01 7.882-6.72-7.882m6.72 7.882h57.42M1293.89 55.11h54.18m-54.18 0-1.26-1.782-3.73-5.245m4.99 7.027h-54.18m54.18 0 1.28 1.797 2.59 3.648 1.32 1.85m48.99-7.295-5.99-7.027m5.99 7.027 2.31 2.703 1.55 1.824 2.36 2.768m-6.22-7.295h54.18m-113.35-7.027h53.18m-53.18 0h-53.18m53.18 0-3.63-5.103-1.19-1.669m58 6.772-2.2-2.569-1.44-1.693-2.14-2.51m5.78 6.772h53.17m-120.29-19.606h50.39m-50.39 0-2.72-3.829-1.61-2.258m4.33 6.087h-50.39m50.39 0 4.48 6.303m45.91-6.303-3.91-4.584-.64-.754-.64-.749m5.19 6.087 2.66 3.123 2.72 3.18m-5.38-6.303h50.39m-105.11-6.087h49.53m-49.53 0-2.11-2.965-1.04-1.464-.52-.727-.51-.725m4.18 5.881h-49.53m99.06 0h49.52m-49.52 0-5.02-5.88m697.37 430.829h-109.95m109.95 0-36.34-28.397m36.34 28.397h32.94m-32.94 0 32.94 25.744m-134.5-105.108h98.66m-98.66 0-29.37-22.954m29.37 22.954h-98.66m98.66 0 31.46 24.58m67.2-24.58-32.63-22.954m32.63 22.954 34.95 24.58m-34.95-24.58h35.84m-163.87-22.954h95.4m-95.4 0h-95.4m95.4 0-27.49-21.483m122.89 21.483-30.55-21.483m30.55 21.483h68.47m-241.38-60.573h86.79m-86.79 0-22.82-17.831m22.82 17.831h-86.79m86.79 0 24.23 18.939m62.56-18.939-25.36-17.831m25.36 17.831 26.92 18.939m-26.92-18.939h86.78m-196.39-17.831h84.25m-84.25 0H1697m84.25 0-21.52-16.821m105.77 16.821-23.91-16.821m23.91 16.821h84.25m-229.6-47.749h77.46m-77.46 0-18.23-14.25m18.23 14.25h-77.46m77.46 0 19.25 15.038m58.21-15.038-20.26-14.25m20.26 14.25 21.38 15.038m-21.38-15.038h77.47m-173.16-14.25h75.43m-75.43 0h-75.44m75.44 0-17.31-13.524m92.74 13.524-19.23-13.524m19.23 13.524h75.44m-200.27-38.605h69.95m-69.95 0-14.91-11.649m14.91 11.649h-69.95m69.95 0 15.65 12.229m54.3-12.229-16.57-11.649m16.57 11.649 17.38 12.229m-17.38-12.229h69.94m-154.8-11.649h68.29m-68.29 0h-68.29m68.29 0-14.21-11.11m82.5 11.11-15.79-11.11m15.79 11.11h68.29m-177.34-31.857h63.76m-63.76 0-12.42-9.7m12.42 9.7h-63.76m63.76 0 12.97 10.139m50.79-10.139-13.79-9.7m13.79 9.7 14.41 10.139m-14.41-10.139h63.76m-139.94-9.7h62.39m-62.39 0h-62.38m62.38 0-11.88-9.29m74.27 9.29-13.21-9.29m13.21 9.29h62.38M1550.22 86.07h58.58m-58.58 0-10.49-8.202m10.49 8.202h-58.58m58.58 0 10.93 8.543m47.65-8.543-11.66-8.202m11.66 8.202 12.15 8.543m-12.15-8.543h58.58m-127.65-8.202h57.41m-57.41 0h-57.42m57.42 0-10.09-7.882m67.5 7.882-11.21-7.882m11.21 7.882h57.41M1510.6 55.11h54.18m-54.18 0-8.99-7.027m8.99 7.027h-54.17m54.17 0 2.31 1.797 1.15.907 5.88 4.59m44.84-7.294-9.99-7.027m9.99 7.027 10.38 7.295m-10.38-7.295h54.18m-117.35-7.027h53.18m-53.18 0h-53.18m53.18 0-8.66-6.772m61.84 6.772-9.63-6.772m9.63 6.772h53.18m-131.45-19.606h50.4m-50.4 0-7.78-6.087m7.78 6.087h-50.39m50.39 0 8.07 6.303m42.33-6.303-6.52-4.584-1.07-.754-1.07-.749m8.66 6.087 8.96 6.303m-8.96-6.303h50.39m-108.57-6.087h49.52m-49.52 0-6.6-5.157-.93-.724m7.53 5.881h-49.53m99.05 0h49.53m-49.53 0-8.36-5.88M2030 218.868l-26.34-14.25m26.34 14.25h-77.46m77.46 0 15.45 8.36m-15.45-8.36h15.45m-41.79-14.25h-75.44m75.44 0-25-13.524m25 13.524h41.79m-113.15-38.605h69.95m-69.95 0-21.53-11.649m21.53 11.649h-69.94m69.94 0 22.61 12.229m47.34-12.229-23.19-11.649m23.19 11.649 24.34 12.229m-24.34-12.229h43.2m-134.68-11.649h68.29m-68.29 0h-68.29m68.29 0-20.53-11.11m88.82 11.11-22.11-11.11m22.11 11.11h66.39m-193.56-31.857h63.76m-63.76 0-17.93-9.7m17.93 9.7h-63.76m63.76 0 18.74 10.139m45.02-10.139-19.31-9.7m19.31 9.7 20.18 10.139m-20.18-10.139h63.76m-145.45-9.7h62.38m-62.38 0h-62.38m62.38 0-17.17-9.29m79.55 9.29-18.49-9.29m18.49 9.29h62.38M1784.54 86.07h58.58m-58.58 0-15.16-8.202m15.16 8.202h-58.58m58.58 0 15.79 8.543m42.79-8.543-16.32-8.202m16.32 8.202 17.01 8.543m-17.01-8.543h58.58m-132.32-8.202h57.42m-57.42 0h-57.41m57.41 0-14.57-7.882m71.99 7.882-15.69-7.882m15.69 7.882h57.41M1727.32 55.11h54.18m-54.18 0-12.99-7.027m12.99 7.027h-54.18m54.18 0 13.48 7.295m40.7-7.295-13.99-7.027m13.99 7.027 14.52 7.295m-14.52-7.295h54.17m-121.34-7.027h53.18m-53.18 0h-53.18m53.18 0-12.52-6.772m65.7 6.772-13.48-6.772m13.48 6.772h53.18m-142.6-19.606h50.39m-50.39 0-11.25-6.087m11.25 6.087h-50.39m50.39 0 11.65 6.303m38.74-6.303-12.11-6.087m12.11 6.087 12.55 6.303m-12.55-6.303h50.39m-112.03-6.087h49.53m-49.53 0-10.87-5.88m10.87 5.88h-49.53m99.06 0h49.52m-49.52 0-11.71-5.88m314.2 69.56-19.82-8.202m19.82 8.202h-58.58m58.58 0 20.65 8.543m-20.65-8.543h26.59m-46.41-8.202h-57.42m57.42 0-19.05-7.882m19.05 7.882h46.41M1944.03 55.11h54.18m-54.18 0-16.98-7.027m16.98 7.027h-54.18m54.18 0 17.63 7.295m36.55-7.295-17.98-7.027m17.98 7.027 18.67 7.295m-18.67-7.295h47.24m-118.4-7.027h53.18m-53.18 0h-53.18m53.18 0-16.37-6.772m69.55 6.772-17.34-6.772m17.34 6.772h53.17m-153.74-19.606h50.39m-50.39 0-14.71-6.087m14.71 6.087h-50.39m50.39 0 15.23 6.303m35.16-6.303-15.58-6.087m15.58 6.087 16.13 6.303m-16.13-6.303h50.39m-115.49-6.087h49.52m-49.52 0-14.22-5.88m14.22 5.88h-49.53m99.05 0H1964m-49.53 0-15.05-5.88m46.76 18.27 16.71 6.531m-16.71-6.531h51.29m-51.29 0h-51.29m85.55-6.303L1964 22.39m16.44 6.087 17.03 6.303m-17.03-6.303h50.39M1964 22.39h49.52m-49.52 0-15.89-5.88m-48.69 0h-48.69m48.69 0h48.69m-48.69 0-14.55-5.687m112.6 23.957 17.64 6.531m-17.64-6.531h47.98m-14.62-6.303-17.31-6.087m17.31 6.087 14.62 5.14m-14.62-5.14h14.62m-31.93-6.087-16.72-5.88m16.72 5.88h31.93m-97.34-5.88h48.69m-48.69 0-15.36-5.687m64.05 5.686-16.17-5.686m16.17 5.686h48.65m-82.56 24.802h52.22m-52.22 0h-52.21m122.72 6.772-18.29-6.772m18.29 6.772 12.05 4.458m-12.05-4.458h12.05m-30.34-6.772h30.34m-134.77 0h-52.22m52.22 0-15.79-6.531m0 0h-51.29m173.28 27.625 19.4 7.58m-19.4-7.58h-55.22m55.22 0h28.57m.16-7.295h-.16m-9.17 14.876h-56.29m56.29 0 9.17 3.582m-9.17-3.582h9.17m-65.46 0h-56.3m56.3 0-18.33-7.581m0 0h-55.21M1741.03 34.78l13 6.531m-13-6.531h51.29m-51.29 0h-51.29m89.13-6.303-12.98-6.087m12.98 6.087 13.45 6.303m-13.45-6.303h50.4m-63.38-6.087h49.53m-49.53 0-12.54-5.88m-48.69 0h48.69m-48.69 0-11.32-5.687m11.32 5.686h-48.69m136.35 18.27 13.93 6.532m-13.93-6.531h51.28m-14.33-6.303-13.85-6.087m13.85 6.087 14.33 6.303m-28.18-12.39-13.38-5.88m-48.69 0h48.69m-48.69 0-12.13-5.687M1843.6 34.78l14.86 6.531m-7.73-24.802h-48.69m48.69 0-13.74-5.686m-34.95 5.686-12.93-5.686m-35.08 30.488h52.22m-52.22 0h-52.22m118.88 6.772-14.44-6.772m14.44 6.772 14.98 7.027m-14.98-7.027h53.18m-67.62-6.772h52.21m-156.65 0h-52.21m52.21 0-12.07-6.531m168.72 6.531 15.41 6.772M1689.74 34.78h-51.29m197.22 20.33 15.56 7.295m-15.56-7.295h54.18m-15.98-7.027 15.98 7.027m0 0 16.6 7.295m-110.43 0 15.09 7.58m-15.09-7.58h55.21m-55.21 0h-55.22m110.43 0 16.17 7.58m-16.17-7.58h55.22m0 0 17.24 7.58m-112.58 0h56.29m-56.29 0h-56.3m129.4 7.883-16.81-7.882m16.81 7.882 17.49 8.202m-17.49-8.202h57.41m-74.22-7.882h56.29m-168.88 0h-56.29m56.29 0-14.01-7.581m182.89 7.58 17.93 7.883M1740.8 62.405h-55.21M1901.7 86.07l18.22 8.543m-18.22-8.543h58.58m-18.66-8.202 18.66 8.202m0 0 19.44 8.543m-119.59 0 17.72 8.904m-17.72-8.904h59.79m-59.79 0h-59.8m119.59 0 18.99 8.904m-18.99-8.904h59.8m0 0 20.25 8.904m-20.25-8.904h59.79m0 0h5.94m-5.94 0 5.94 2.456m-167.6 6.448h61.06m-61.06 0h-61.06m141.93 9.29-19.81-9.29m19.81 9.29 20.69 9.7m-20.69-9.7h62.39m-82.2-9.29h61.06m-183.18 0h-61.06m61.06 0-16.46-8.904m199.64 8.904 21.14 9.29m-21.14-9.29h45.48m-245.12-8.904h-59.79m238.87 27.894 21.62 10.139m-21.62-10.139h63.76m-22.06-9.7 22.06 9.7m-22.06-9.7h24.34m.32-9.29h-.32m-2.28 18.99 2.28 1.001m-2.28-1.001h2.28m-109.62 10.139 21.12 10.608m-21.12-10.608h65.2m-65.2 0h-65.2m130.4 0 22.63 10.608m-22.63-10.608h44.42m.55-8.896-.55-.242m-88.5 19.746h66.71m-66.71 0h-66.71m133.42 0h21.79m-21.79 0 21.79 10.217m-155.21-10.217h-66.71m66.71 0-19.61-10.608m0 0h-65.2m221.16 45.596h-71.68m71.68 0 18.86 9.473m-18.86-9.473h18.86m.52-12.229h-.52m-90.54 12.229h-71.69m71.69 0 23.75 12.852m67-3.274-.21-.105M1535.88 34.78l9.28 6.531m-9.28-6.531h51.29m-51.29 0h-51.29m92.72-6.303-9.52-6.087m9.52 6.087 9.86 6.303m-9.86-6.303h50.39m-59.91-6.087h49.52m-49.52 0-9.2-5.88m-48.69 0h48.69m-48.69 0-3.06-2.155-5.02-3.532m8.08 5.686h-48.69m125.96 18.27 10.21 6.532m-10.21-6.531h51.28m-10.75-6.303-10.39-6.087m10.39 6.087 10.75 6.303m-21.14-12.39-10.03-5.88m-48.69 0h48.69m-48.69 0-8.89-5.687m88.75 23.957 11.15 6.531m6.37-24.802-10.51-5.686m10.51 5.686h-48.69m0 0-1.23-.722-2.45-1.432-6.02-3.532m-52.42 30.488h52.22m-52.22 0h-52.21m115.02 6.772-10.59-6.772m10.59 6.772 10.99 7.027m-10.99-7.027h53.18m-63.77-6.772h52.22m-156.65 0h-52.22m52.22 0-8.36-6.531m165.01 6.531 11.55 6.772M1484.59 34.78h-51.29m185.66 20.33 11.41 7.295m-11.41-7.295h54.18m-11.99-7.027 1.48.864 10.51 6.163m0 0 12.45 7.295m-110.43 0 1.32.932 9.45 6.649m-10.77-7.581h55.21m-55.21 0h-55.22m110.43 0 11.86 7.58m-11.86-7.58h55.22m0 0 12.93 7.58m-112.59 0h56.3m-56.3 0h-56.29m124.91 7.883-12.32-7.882m12.32 7.882 12.83 8.202m-12.83-8.202h57.42m-69.74-7.882h56.29m-168.88 0h-56.29m56.29 0-9.7-7.581m178.58 7.58 13.45 7.883m-192.03-15.463h-55.22m202.66 23.665 13.36 8.543m-13.36-8.543h58.58m-13.99-8.202 13.99 8.202m0 0 14.58 8.543m-119.59 0 12.66 8.904m-12.66-8.904h59.79m-59.79 0h-59.8m119.59 0 13.93 8.904m-13.93-8.904h59.8m0 0 15.19 8.904m-122.12 0h61.06m-61.06 0h-61.06m136.65 9.29-14.53-9.29m14.53 9.29 15.17 9.7m-15.17-9.7h62.38m-76.91-9.29h61.06m-183.18 0h-61.06m61.06 0-11.4-8.904m194.58 8.904 15.85 9.29m-210.43-18.194h-59.79m223.01 27.894 15.86 10.139m-15.86-10.139h63.76m-16.55-9.7 16.55 9.7m0 0 17.3 10.139m-130.41 0 15.09 10.608m-15.09-10.608h65.21m-65.21 0h-65.2m130.41 0 16.59 10.608m-16.59-10.608h65.2m0 0 18.1 10.608m-133.42 0h66.71m-66.71 0h-66.71m150.79 11.11-17.37-11.11m17.37 11.11 18.22 11.649m-18.22-11.649h68.29m-85.66-11.11h66.71m-200.13 0h-66.72m66.72 0-13.58-10.608m213.71 10.608 18.95 11.11m-232.66-21.718h-65.2m247.79 33.367 19.13 12.229m-19.13-12.229h69.95m-19.88-11.649 19.88 11.649m0 0 20.86 12.229m-143.37 0 18.27 12.852m-18.27-12.852h71.69m-71.69 0h-71.68m143.37 0 20.1 12.852m-20.1-12.852h71.68m0 0 21.93 12.852m-147.03 0h73.52m-73.52 0h-73.51m168.18 13.524-21.15-13.524m21.15 13.524 22.29 14.25m-22.29-14.25h75.43m-96.58-13.524h73.51m-220.54 0h-73.51m73.51 0-16.44-12.852m236.98 12.852 23.07 13.524m-23.07-13.524h73.51m-310.49-12.852h-71.69m278.6 40.626 23.51 15.038m-23.51-15.038h77.46m-24.32-14.25 24.32 14.25m26.12-27.774h66.79m-92.91 27.774 25.65 15.038m-159.2 0 22.6 15.89m-22.6-15.89h79.6m-79.6 0h-79.59m159.19 0 24.86 15.89m-24.86-15.89h79.6m0 0 27.12 15.89m-27.12-15.89h67.26m-203.86 15.89h81.86m-81.86 0h-81.86m190.02 16.821-26.3-16.821m26.3 16.821 27.89 17.831m-27.89-17.831H2034m-110.55-16.821h81.86m-245.58 0h-81.86m81.86 0-20.33-15.89m265.91 15.89 28.69 16.821m-28.69-16.821h40.14m-306.05-15.89h-79.6m317.84 50.542 29.62 18.939m-29.62-18.939h67.81M2034 266.617h11.45m-11.45 0 11.45 6.709m-127.67 30.061 28.65 20.151m-28.65-20.151h89.48m-89.48 0h-89.48m178.96 0 31.51 20.151m-31.51-20.151h38.19m-99.02 20.151h92.34m-92.34 0h-92.34m184.68 0 6.68 4.267m-6.68-4.267h6.68m-191.36 0h-92.34m92.34 0-25.79-20.151m0 0h-89.47m305.73 89.168h-102.15m102.15 0h.89m-.89 0 .89.625m-103.04-.625h-102.16m102.16 0 33.76 26.387M1330.73 34.78l2.06 2.421.7.815 2.81 3.295m-5.57-6.531h51.28m-51.28 0h-51.29m96.3-6.303-4.56-4.584-1.5-1.503m6.06 6.087 5.48 5.503.79.8m-6.27-6.303h50.39m-56.45-6.087h49.53m-49.53 0-5.85-5.88m-48.69 0h48.69m-48.69 0-1.84-2.155-3.01-3.532m4.85 5.686h-48.69m115.56 18.27 1.61 1.611 4.89 4.921m-6.5-6.531h51.29m-7.17-6.303-6.92-6.087m6.92 6.087 7.17 6.303m-14.09-12.39-5.04-4.43-1.65-1.45m-48.69 0h48.69m-48.69 0-5.66-5.687m75.13 23.957 7.43 6.531m20.48-24.802-.92-.722-6.36-4.964m7.28 5.686h-48.69m0 0-2.45-2.154-4.02-3.532m-69.75 30.488h52.21m-52.21 0h-52.22m111.17 6.772-6.74-6.772m6.74 6.772 7 7.027m-7-7.027h53.18m-59.92-6.772h52.22m-156.65 0h-52.21m52.21 0-4.64-6.531m161.29 6.531 7.7 6.772M1279.44 34.78h-51.29m174.1 20.33 4.5 4.527.92.918 1.84 1.85m-7.26-7.295h54.18m-8-7.027 8 7.027m0 0 8.29 7.295m-110.43 0 6.47 7.58m-6.47-7.58h55.22m-55.22 0h-55.21m110.43 0 7.54 7.58m-7.54-7.58h55.21m0 0 8.63 7.58m-112.59 0h56.29m-56.29 0h-56.29m120.43 7.883-4.94-4.963-.97-.978-1.94-1.941m7.85 7.882 8.16 8.202m-8.16-8.202h57.41m-65.26-7.882h56.3m-168.88 0h-56.3m56.3 0-5.39-7.581m174.27 7.58 8.96 7.883m-183.23-15.463h-55.22m189.2 23.665 8.5 8.543m-8.5-8.543h58.58m-9.33-8.202 9.33 8.202m0 0 9.72 8.543m-119.59 0 3.76 4.405.95 1.117 2.88 3.382m-7.59-8.904h59.79m-59.79 0h-59.8m119.59 0 8.87 8.904m-8.87-8.904h59.8m0 0 10.13 8.904m-122.13 0h61.07m-61.07 0h-61.06m131.37 9.29-9.24-9.29m9.24 9.29 9.66 9.7m-9.66-9.7h62.38m-71.62-9.29h61.06m-183.19 0h-61.06m61.06 0-1.6-2.261-4.73-6.643m189.52 8.904 10.56 9.29m-200.08-18.194h-59.79m207.15 27.894 10.09 10.139m-10.09-10.139h63.76m-11.04-9.7 11.04 9.7m0 0 11.53 10.139m-130.41 0 9.05 10.608m-9.05-10.608h65.21m-65.21 0h-65.2m130.41 0 10.55 10.608m-10.55-10.608h65.2m0 0 12.06 10.608m-133.42 0h66.71m-66.71 0h-66.71m144.48 11.11-11.06-11.11m11.06 11.11 11.6 11.649m-11.6-11.649h68.29m-79.35-11.11h66.71m-200.13 0h-66.71m66.71 0-7.54-10.608m207.67 10.608 12.64 11.11m-220.31-21.718h-65.2m228.82 33.367 12.17 12.229m-12.17-12.229h69.94m-13.25-11.649 13.25 11.649m0 0 13.91 12.229m-143.37 0 10.97 12.852m-10.97-12.852h71.69m-71.69 0h-71.68m143.37 0 12.79 12.852m-12.79-12.852h71.68m0 0 14.62 12.852m-147.02 0h73.51m-73.51 0h-73.52m160.49 13.524-13.46-13.524m13.46 13.524 14.18 14.25m-14.18-14.25h75.43m-88.89-13.524h73.51m-220.54 0h-73.51m73.51 0-9.13-12.852m229.67 12.852 15.38 13.524m-245.05-26.376h-71.69m255.49 40.626 14.97 15.038m-14.97-15.038h77.46m-16.21-14.25 16.21 14.25m0 0 17.11 15.038m-159.2 0 13.55 15.89m-13.55-15.89h79.6m-79.6 0H1421m159.2 0 15.81 15.89m-15.81-15.89h79.6m0 0 18.07 15.89m-163.72 0h81.86m-81.86 0h-81.86m180.46 16.821-16.74-16.821m16.74 16.821 17.75 17.831m-17.75-17.831H1697m-100.99-16.821h81.86m-245.58 0h-81.85m81.85 0-11.29-15.89m256.87 15.89 19.13 16.821m-276-32.711h-79.6m289.1 50.542 18.85 18.939m-18.85-18.939h86.78M1697 266.617l20.28 17.831m0 0 21.55 18.939m-178.96 0 17.19 20.151m-17.19-20.151h89.48m-89.48 0h-89.48m178.96 0 20.05 20.151m-20.05-20.151h89.48m0 0 22.92 20.151m-184.69 0h92.34m-92.34 0h-92.34m206.06 21.483-21.38-21.483m21.38 21.483 22.85 22.954m-22.85-22.954h95.4m-116.78-21.483h92.35m-277.03 0h-92.35m92.35 0-14.33-20.151m291.36 20.151 24.43 21.483m-315.79-41.634h-89.48m332.72 64.588 24.46 24.58m-24.46-24.58h98.66m-26.11-22.954 26.11 22.954m0 0 27.96 24.58m-204.31 0 22.51 26.387m-22.51-26.387h102.15m-102.15 0h-102.16m204.31 0 26.26 26.387m-26.26-26.387h102.16m0 0 30.01 26.387m-211.81 0h105.9m-105.9 0h-105.91m240.08 28.397-28.27-28.397m28.27 28.397 30.5 30.649m-30.5-30.649h109.94m-138.21-28.397h105.91m-317.72 0h-105.91m105.91 0-18.76-26.387m336.48 26.387 32.3 28.397m-32.3-28.397h105.91m-442.39-26.387h-102.15m391.49 85.433 33.02 33.178m-33.02-33.178h114.3m-34.86-30.649 34.86 30.649m38.75-59.046h69.28m-108.03 59.046 37.74 33.178m-37.74-33.178h108.03m-308.33 33.178 30.74 36.034m-30.74-36.034h119.02m-119.02 0H1618.1m238.04 0L1892 547.2m-35.86-36.034h119.02m0 0 40.99 36.034m-40.99-36.034h70.29M1767.86 547.2H1892m-124.14 0h-124.14m287.37 39.276L1892 547.2m39.09 39.276 42.78 42.976m-42.78-42.976h114.36M1892 547.2h124.15m-372.43 0h-124.15m124.15 0-25.62-36.034m398.05 36.034h29.3m-29.3 0 29.3 25.762m-427.35-61.796h-119.02m474.79 118.286 47 47.226m-47-47.226h71.58m-167.13 47.226 44.47 52.137m-44.47-52.137h142.55m-142.55 0h-142.56m285.11 0 24.58 24.699m-24.58-24.699h24.58m-122.66 52.137h-149.96m149.96 0 122.66-.001m-272.62.001h-149.97m149.97 0-37.07-52.137m0 0h-142.55M1125.58 34.78l.22.803.23.807.23.811.24.815.7 2.466.23.83m-1.85-6.532h51.28m-51.28 0h-51.29m99.88-6.303-1.95-4.584-.64-1.503m2.59 6.087 1.67 3.913 1.02 2.39m-2.69-6.303h50.4m-52.99-6.087h49.52m-49.52 0-1.89-4.43-.62-1.45m-48.69 0-.2-.723-.82-2.854-.6-2.11m1.62 5.686h48.69m-48.69 0h-48.69m105.17 18.27.35.804.34.807.35.811.34.815 1.41 3.295m-2.79-6.531h51.29m-3.58-6.303-2.61-4.584-.86-1.503m3.47 6.087 3.58 6.303m-7.05-12.39-1.68-2.965-1.25-2.192-.41-.724m-48.69 0-.31-.722-.61-1.432-.61-1.422-.3-.706-.6-1.404m2.43 5.686h48.69m10.39 18.27 2.77 4.877.95 1.655m34.58-24.802-3.04-4.282-1-1.404m4.04 5.686h-48.69m0 0-2.83-4.985-.4-.7m-87.1 30.487h52.22m-52.22 0h-52.21m107.32 6.772-2.89-6.772m2.89 6.772 2.99 7.027m-2.99-7.027h53.18m-56.07-6.772h52.22m-156.65 0H1023m52.22 0-.93-6.531m157.58 6.531 3.85 6.772M1074.29 34.78H1023m162.53 20.33.77 1.797 1.17 2.73 1.18 2.768m-3.12-7.295h54.18m-3.99-7.027.49.864 3.5 6.163m0 0 .51.896.52.901.51.907 2.61 4.59m-110.43 0 2.16 7.582m-2.16-7.581h55.22m-55.22 0h-55.21m110.43 0 3.23 7.58m-3.23-7.58h55.21m0 0 3.22 5.658.55.96.54.963m-112.58 0h56.29m-56.29 0h-56.3m115.95 7.882.43 1.008.43 1.011.44 1.019 2.2 5.164m-3.5-8.202-1.7-3.98-.42-.983-.41-.978-.83-1.941m3.36 7.882h57.42m-60.78-7.882h56.29m-168.88 0H1023m56.29 0-1.07-7.581m169.95 7.58 4.49 7.883m-174.44-15.463H1023m175.74 23.665 3.18 7.456.46 1.087m-3.64-8.543h58.58m-4.66-8.202 1.15 2.02 3.51 6.182m0 0 1.8 3.163 3.06 5.38m-119.59 0 1.25 4.405.32 1.117.96 3.382m-2.53-8.904h59.79m-59.79 0h-59.79m119.58 0 3.8 8.904m-3.8-8.904h59.8m0 0 5.06 8.904m-122.12 0h61.06m-61.06 0h-61.06m126.08 9.29-3.96-9.29m3.96 9.29 4.14 9.7m-4.14-9.7h62.39m-66.35-9.29h61.06m-183.18 0H1023m61.06 0-.32-2.261-.63-4.452-.31-2.191m184.44 8.904 5.29 9.29M1082.8 94.613H1023m191.28 27.894 3.23 7.562 1.1 2.577m-4.33-10.139h63.76m-5.51-9.7 5.51 9.7m0 0 2.85 5.013 2.92 5.126m-130.41 0 3.02 10.608m-3.02-10.608h65.21m-65.21 0h-65.2m130.41 0 4.52 10.608m-4.52-10.608h65.2m0 0 6.03 10.608m-133.42 0h66.71m-66.71 0h-66.71m138.16 11.11-1.21-2.826-3.53-8.284m4.74 11.11 4.97 11.649m-4.97-11.649h68.29m-73.03-11.11h66.71m-200.13 0H1023m66.71 0-1.51-10.608m201.64 10.608 6.32 11.11m-207.96-21.718H1023m209.84 33.367 5.22 12.229m-5.22-12.229h69.95m-6.63-11.649 6.63 11.649m0 0 6.95 12.229m-143.37 0 3.66 12.852m-3.66-12.852h71.69m-71.69 0h-71.68m143.37 0 5.48 12.852m-5.48-12.852h71.68m0 0 7.31 12.852m-147.02 0h73.51m-73.51 0h-73.52m152.8 13.524-5.77-13.524m5.77 13.524 6.07 14.25m-6.07-14.25h75.43m-81.2-13.524h73.51m-220.54 0H1023m73.51 0-1.6-11.28-.22-1.572m222.36 12.852 7.69 13.524m-230.05-26.376H1023m232.38 40.626 6.42 15.038m-6.42-15.038h77.47m-8.11-14.25 6.04 10.617 2.07 3.633m0 0 8.55 15.038m-159.2 0 4.52 15.89m-4.52-15.89h79.6m-79.6 0h-79.6m159.2 0 6.78 15.89m-6.78-15.89h79.6m0 0 9.04 15.89m-163.72 0h81.86m-81.86 0h-81.86m170.89 16.821-7.17-16.821m7.17 16.821 7.61 17.831m-7.61-17.831H1360m-91.42-16.821h81.86m-245.58 0H1023m81.86 0-2.26-15.89m247.84 15.89 9.56 16.821m-257.4-32.711H1023m260.36 50.542 8.07 18.939m-8.07-18.939h86.78M1360 266.617l10.14 17.831m0 0 10.77 18.939m-178.95 0 5.73 20.151m-5.73-20.151h89.47m-89.47 0h-89.48m178.95 0 8.6 20.151m-8.6-20.151h89.48m0 0 11.46 20.151m-184.68 0h92.34m-92.34 0h-92.35m193.85 21.483-9.16-21.483m9.16 21.483 9.79 22.954m-9.79-22.954h95.4m-104.56-21.483h92.34m-277.03 0H1023m92.34 0-2.86-20.151m279.89 20.151 12.22 21.483m-292.11-41.634H1023m295.98 64.588 10.49 24.58m-10.49-24.58h98.67m-13.06-22.954 13.06 22.954m0 0 13.98 24.58m-204.32 0 7.51 26.387m-7.51-26.387h102.16m-102.16 0h-102.15m204.31 0 11.25 26.387m-11.25-26.387h102.16m0 0 15 26.387m-211.81 0h105.9m-105.9 0h-105.91m223.93 28.397-12.12-28.397m12.12 28.397 13.07 30.649m-13.07-30.649h109.94m-122.06-28.397h105.91m-317.72 0H1023m105.91 0-3.75-26.387m321.47 26.387 16.15 28.397m-337.62-54.784H1023m342.91 85.433 14.15 33.178m-14.15-33.178h114.3m-17.43-30.649 17.43 30.649m0 0 18.87 33.178m-238.04 0 10.25 36.034m-10.25-36.034h119.02m-119.02 0h-119.02m238.04 0 15.37 36.034m-15.37-36.034h119.02m0 0 20.49 36.034m-248.28 0h124.14m-124.14 0h-124.15m265.04 39.276-16.75-39.276m16.75 39.276 18.33 42.976m-18.33-42.976h129.73M1395.43 547.2h124.14m-372.43 0H1023m124.14 0-5.12-36.034m377.55 36.034 22.34 39.276m-399.89-75.31H1023m407.51 118.286 20.15 47.226m-20.15-47.226h135.84m-24.44-42.976 24.44 42.976m0 0 26.86 47.226m-285.11 0 14.83 52.137m-14.83-52.137h142.56m-142.56 0h-142.55m285.11 0 22.24 52.137m-22.24-52.137h142.55m0 0 29.65 52.137m-149.96 0h-149.97m149.97 0h149.96m-299.93 0h-149.96m0 0H1023m149.97 0-7.42-52.137m0 0H1023M920.425 34.78l-.229.803-.229.807-.231.811-.231.815-.467 1.64-.235.826-.235.83m1.857-6.532h51.287m-51.287 0h-51.289m103.472-6.303.866-6.087m-.866 6.087-.896 6.303m.896-6.303H1023m-49.526-6.087.106-.746.106-.743.104-.74.52-3.652m-.836 5.881H1023m-97.38-5.88.205-.723.811-2.854.601-2.11m-1.617 5.686h48.69m-48.69 0h-48.69m94.782 18.27-.115.804-.113.807-.117.811-.583 4.11m.928-6.531H1023m0-6.303V22.39m0 6.087v6.303m0-12.39v-5.88m-48.69 0H1023m-48.69 0 .306-2.155.102-.713.401-2.819M1023 34.78v6.531m48.69-24.802-.31-2.154-.1-.713-.1-.709-.1-.706-.1-.703-.1-.7m.81 5.685H1023m0 0v-5.686M918.568 41.311h52.216m-52.216 0h-52.217m103.47 6.772-.124.864-.122.868-.753 5.295m.999-7.027.963-6.772m-.963 6.772H1023m-52.216-6.772H1023m-156.649 0h-52.216m52.216 0 .705-1.655.352-.821.348-.819.348-.815.345-.81.345-.807.342-.804M1023 41.31v6.772M869.136 34.78h-51.287m150.973 20.33-1.037 7.295m1.037-7.295H1023m0-7.027v7.027m0 0v7.295m-110.431 0-2.156 7.58m2.156-7.58h55.216m-55.216 0h-55.215m110.431 0-1.078 7.58m1.078-7.58H1023m0 0v7.58m-112.587 0h56.294m-56.294 0H854.12m111.466 7.883 1.121-7.882m-1.121 7.882-1.166 8.202m1.166-8.202H1023m-56.293-7.882H1023m-168.88 0h-56.293m56.293 0 3.234-7.581M1023 69.985v7.883M857.354 62.405h-55.216M964.42 86.07l-.449 3.163-.457 3.21-.309 2.17m1.215-8.543H1023m0-8.202v8.202m0 0v8.543m-119.589 0-1.254 4.405-.316 1.117-.963 3.382m2.533-8.904h59.794m-59.794 0h-59.795m119.589 0-.311 2.191-.633 4.452-.321 2.261m1.265-8.904H1023m0 0v8.904m-122.122 0h61.062m-61.062 0h-61.06m120.801 9.29.167-1.183 1.154-8.107m-1.321 9.29-1.379 9.7m1.379-9.7H1023m-61.06-9.29H1023m-183.182 0h-61.061m61.061 0 3.798-8.904M1023 103.517v9.29M843.616 94.613H783.82m175.42 27.894-1.442 10.139m1.442-10.139H1023m0-9.7v9.7m0 0v10.139m-130.405 0-3.016 10.608m3.016-10.608h65.203m-65.203 0h-65.202m130.405 0-1.508 10.608m1.508-10.608H1023m0 0v10.608m-133.421 0h66.711m-66.711 0h-66.711m131.842 11.11 1.58-11.11m-1.58 11.11-1.656 11.649m1.656-11.649H1023m-66.71-11.11H1023m-200.132 0h-66.71m66.71 0 4.525-10.608M1023 143.254v11.11m-195.607-21.718H762.19m190.864 33.367-1.739 12.229m1.739-12.229H1023m0-11.649v11.649m0 0v12.229m-143.371 0-3.654 12.852m3.654-12.852h71.686m-71.686 0h-71.684m143.37 0-1.827 12.852m1.827-12.852H1023m0 0v12.852m-147.025 0h73.513m-73.513 0h-73.512m145.102 13.524 1.923-13.524m-1.923 13.524-2.026 14.25m2.026-14.25H1023m-73.512-13.524H1023m-220.537 0H728.95m73.513 0 5.482-12.852M1023 191.094v13.524m-215.055-26.376h-71.686m209.28 40.626-2.139 15.038m2.139-15.038H1023m0-14.25v14.25m0 0v15.038m-159.198 0-4.52 15.89m4.52-15.89H943.4m-79.598 0h-79.6m159.198 0-2.259 15.89m2.259-15.89h79.6m0 0v15.89m-163.718 0h81.859m-81.859 0h-81.858m161.326 16.821 2.391-16.821m-2.391 16.821-2.536 17.831m2.536-17.831H1023m-81.859-16.821H1023m-245.576 0h-81.859m81.859 0 6.778-15.89M1023 249.796v16.821m-238.798-32.711h-79.6m231.612 50.542-2.692 18.939m2.692-18.939H1023m0-17.831v17.831m0 0v18.939m-178.956 0-5.73 20.151m5.73-20.151h89.478m-89.478 0h-89.478m178.956 0-2.865 20.151m2.865-20.151H1023m0 0v20.151m-184.686 0h92.343m-92.343 0h-92.343m181.631 21.483 3.055-21.483m-3.055 21.483-3.263 22.954m3.263-22.954H1023m-92.343-21.483H1023m-277.029 0h-92.344m92.344 0 8.595-20.151M1023 323.538v21.483m-268.434-41.634h-89.479m259.252 64.588-3.495 24.58m3.495-24.58H1023m0-22.954v22.954m0 0v24.58m-204.312 0-7.503 26.387m7.503-26.387h102.156m-102.156 0H716.532m204.312 0-3.752 26.387m3.752-26.387H1023m0 0v26.387m-211.815 0h105.907m-105.907 0H705.277m207.778 28.397 4.037-28.397m-4.037 28.397-4.357 30.649m4.357-30.649H1023m-105.908-28.397H1023m-317.723 0H599.369m105.908 0 11.255-26.387M1023 418.942v28.397m-306.468-54.784H614.375m294.323 85.433-4.718 33.178m4.718-33.178H1023m0-30.649v30.649m0 0v33.178m-238.04 0L774.713 547.2m10.247-36.034h119.02m-119.02 0H665.939m238.041 0-5.123 36.034m5.123-36.034H1023m0 0V547.2m-248.287 0h124.144m-124.144 0H650.57m242.703 39.276 5.584-39.276m-5.584 39.276-6.111 42.976m6.111-42.976H1023M898.857 547.2H1023m-372.43 0H526.426m124.144 0 15.369-36.034M1023 547.2v39.276m-357.061-75.31H546.92m340.242 118.286-6.715 47.226m6.715-47.226H1023m0-42.976v42.976m0 0v47.226m-285.105 0-14.825 52.137m14.825-52.137h142.552m-142.552 0H595.343m285.104 0-7.413 52.137m7.413-52.137H1023m0 0v52.137m-149.966 0H723.07m149.964 0H1023m-299.93 0H573.104m0 0H423.139m149.965 0 22.239-52.137m0 0H452.79M715.274 34.78l-2.761 3.236-2.811 3.295m5.572-6.531h51.287m-51.287 0h-51.288m107.056-6.303 4.327-6.087m-4.327 6.087-4.481 6.303m4.481-6.303h50.392m-46.065-6.087h49.526m-49.526 0 3.148-4.43 1.033-1.45m-48.69 0h48.69m-48.69 0 1.838-2.155 3.012-3.532m-4.85 5.686h-48.69m84.391 18.27-4.642 6.532m4.642-6.531h51.288m3.585-6.303 3.461-6.087m-3.461 6.087-3.585 6.303m7.046-12.39 1.687-2.965 1.246-2.192.411-.724m-48.689 0h48.689m-48.689 0 3.043-4.282.998-1.404m34.258 23.957-2.774 4.876-.94 1.655M876.93 16.51l.307-.722.611-1.432.908-2.128.6-1.404m-2.426 5.686h-48.691m0 0 .411-.722.815-1.432 2.008-3.532M709.702 41.311h52.217m-52.217 0h-52.217m99.619 6.772.612-.86.608-.857 2.407-3.386 1.188-1.669m-4.815 6.772-3.729 5.245-1.267 1.782m4.996-7.027h53.18m-48.365-6.772h52.216m-156.65 0h-52.216m52.216 0 4.897-4.92 1.604-1.611m150.149 6.531-3.851 6.772M663.986 34.78h-51.289m139.411 20.33-.636.896-.642.901-1.939 2.73-.654.918-1.314 1.85m5.185-7.295h54.179m3.997-7.027-.492.864-3.505 6.163m0 0-.51.896-.513.901-.514.907-2.612 4.59m-110.431 0-6.467 7.582m6.467-7.581h55.216m-55.216 0h-55.215m110.431 0-5.389 7.58m5.389-7.58h55.215m0 0-4.311 7.58m-112.587 0h56.294m-56.294 0h-56.293m106.983 7.883 5.604-7.882m-5.604 7.882-5.831 8.202m5.831-8.202h57.414m-51.81-7.882h56.293m-168.88 0h-56.293m56.293 0 7.545-7.581m161.335 7.58-4.483 7.883M636.492 62.405h-55.217M730.099 86.07l-6.073 8.543m6.073-8.543h58.58m4.665-8.202-1.149 2.02-3.516 6.182m0 0-1.799 3.163-1.826 3.21-1.234 2.17m-119.589 0-3.758 4.405-3.838 4.499m7.596-8.904h59.795m-59.795 0h-59.795m119.59 0-6.33 8.904m6.33-8.904h59.794m0 0-5.063 8.904m-122.122 0h61.061m-61.061 0h-61.06m115.517 9.29 6.604-9.29m-6.604 9.29-6.896 9.7m6.896-9.7h62.381m-55.777-9.29h61.061m-183.182 0h-61.062m61.062 0 8.861-8.904m174.321 8.904-5.284 9.29M604.436 94.613h-59.794m159.554 27.894-1.772 2.492-5.435 7.647m7.207-10.139h63.76m5.517-9.7-5.517 9.7m0 0-.706 1.243-2.144 3.77-2.916 5.126m-130.404 0-9.049 10.608m9.049-10.608h65.203m-65.203 0h-65.202m130.405 0-7.542 10.608m7.542-10.608h65.201m0 0-6.032 10.608m-133.421 0h66.71m-66.71 0h-66.711m125.523 11.11 4.98-7.004 2.918-4.106m-7.898 11.11-8.282 11.649m8.282-11.649h68.29m-60.392-11.11h66.711m-200.132 0h-66.71m66.71 0 10.558-10.608m189.574 10.608-6.319 11.11m-183.255-21.718h-65.203m171.886 33.367-8.693 12.229m8.693-12.229h69.947m6.625-11.649-6.625 11.649m0 0-6.955 12.229m-143.37 0-10.964 12.852m10.964-12.852h71.685m-71.685 0h-71.685m143.37 0-9.136 12.852m9.136-12.852h71.685m0 0-7.309 12.852m-147.025 0h73.513m-73.513 0h-73.512m137.411 13.524 9.614-13.524m-9.614 13.524-10.131 14.25m10.131-14.25h75.435m-65.821-13.524h73.512m-220.537 0h-73.512m73.512 0 12.791-12.852m207.746 12.852-7.691 13.524m-200.055-26.376h-71.685m186.174 40.626-10.69 15.038m10.69-15.038h77.461m8.105-14.25-8.105 14.25m0 0-8.552 15.038m-159.199 0-13.556 15.89m13.556-15.89h79.6m-79.6 0h-79.6m159.2 0-11.297 15.89m11.297-15.89h79.599m0 0-9.037 15.89m-163.718 0h81.859m-81.859 0h-81.858m151.76 16.821 11.957-16.821m-11.957 16.821-12.676 17.831m12.676-17.831H686m-72.294-16.821h81.859m-245.576 0H368.13m81.859 0 15.814-15.89m229.762 15.89L686 266.617m-220.197-32.711h-79.598m202.868 50.542-13.464 18.939m13.464-18.939h86.785M686 266.617l-10.142 17.831m0 0-10.771 18.939m-178.956 0-17.19 20.151m17.19-20.151h89.478m-89.478 0h-89.478m178.956 0-14.325 20.151m14.325-20.151h89.478m0 0-11.46 20.151m-184.686 0h92.343m-92.343 0h-92.343m169.413 21.483 15.273-21.483m-15.273 21.483-16.318 22.954m16.318-22.954h95.398m-80.125-21.483h92.343m-277.029 0h-92.343m92.343 0 20.055-20.151m256.974 20.151-12.218 21.483m-244.756-41.634h-89.478m222.518 64.588-17.474 24.58m17.474-24.58h98.662m13.054-22.954-13.054 22.954m0 0-13.98 24.58m-204.312 0-22.509 26.387m22.509-26.387h102.156m-102.156 0H307.906m204.313 0-18.757 26.387m18.757-26.387h102.156m0 0-15.006 26.387m-211.815 0h105.908m-105.908 0H281.646m191.628 28.397 20.188-28.397m-20.188 28.397-21.788 30.649m21.788-30.649h109.945m-89.757-28.397h105.907m-317.723 0H175.739m105.907 0 26.26-26.387m291.463 26.387-16.15 28.397m-275.313-54.784H205.75m245.736 85.433-23.587 33.178m23.587-33.178h114.302m17.431-30.649-17.431 30.649m0 0-18.868 33.178m-238.04 0L278.139 547.2m30.741-36.034h119.019m-119.019 0H189.859m238.04 0L402.283 547.2m25.616-36.034H546.92m0 0L526.426 547.2m-248.287 0h124.144m-124.144 0H153.996m220.365 39.276 27.922-39.276m-27.922 39.276-30.552 42.976m30.552-42.976h129.728M402.283 547.2h124.143m-372.43 0H29.852m124.144 0 35.863-36.034M526.426 547.2l-22.337 39.276m-314.23-75.31H70.839m272.97 118.286-33.571 47.226m33.571-47.226h135.839m24.441-42.976-24.441 42.976m0 0-26.858 47.226m-285.105 0-44.477 52.137m44.477-52.137h142.553m-142.553 0H25.132m285.106 0-37.064 52.137m37.064-52.137H452.79m0 0-29.651 52.137m-149.965 0H123.208m149.966 0h149.965m-299.931 0L.551 728.814m24.581-52.136L.551 701.377m24.581-24.699H.551M510.122 34.78l-9.286 6.531m9.286-6.531h51.288m-51.288 0h-51.287m110.641-6.303 7.788-6.087m-7.788 6.087-8.066 6.303m8.066-6.303h50.391m-42.603-6.087h49.526m-49.526 0 7.526-5.88m-48.691 0h48.691m-48.691 0 3.064-2.155 5.021-3.532m-8.085 5.686h-48.69m74.001 18.27-8.358 6.532m8.358-6.531h51.287m7.17-6.303 6.923-6.087m-6.923 6.087-7.17 6.303m14.093-12.39 5.039-4.43 1.651-1.45m-48.69 0 .922-.723 6.353-4.964m-7.275 5.686h48.69m-20.783 18.27-7.428 6.532M682.17 16.51l5.658-5.686m-5.658 5.686h-48.69m0 0 2.451-2.154 4.016-3.532M500.836 41.311h52.216m-52.216 0H448.62m95.767 6.772 8.665-6.772m-8.665 6.772-8.991 7.027m8.991-7.027h53.179m-44.514-6.772h52.217m-156.649 0h-52.216m52.216 0 10.215-6.531m146.434 6.531-7.703 6.772M458.835 34.78h-51.288m127.849 20.33-2.302 1.797-7.034 5.498m9.336-7.295h54.178m7.992-7.027-7.992 7.027m0 0-8.299 7.295m-110.431 0-1.324.932-9.453 6.649m10.777-7.581h55.216m-55.216 0h-55.215m110.431 0-9.7 7.58m9.7-7.58h55.215m0 0-1.058.932-7.563 6.649m-112.587 0h56.293m-56.293 0h-56.293m102.5 7.882 10.086-7.882m-10.086 7.882-10.496 8.202m10.496-8.202h57.414m-47.328-7.882h56.294m-168.88 0h-56.293m56.293 0 11.855-7.581m157.025 7.58-8.966 7.883M415.629 62.405h-55.216M495.778 86.07l-10.931 8.543m10.931-8.543h58.58m9.33-8.202-9.33 8.202m0 0-9.716 8.543m-119.59 0-12.66 8.904m12.66-8.904h59.795m-59.795 0h-59.795m119.59 0-11.394 8.904m11.394-8.904h59.795m0 0-10.129 8.904m-122.121 0h61.061m-61.061 0h-61.061m110.235 9.29 11.887-9.29m-11.887 9.29-12.414 9.7m12.414-9.7h62.381m-50.494-9.29h61.06m-183.182 0H290.27m61.061 0 13.926-8.904m169.256 8.904-10.566 9.29m-158.69-18.194h-59.795m143.69 27.894-12.973 10.139m12.973-10.139h63.762m11.033-9.7-11.033 9.7m0 0-11.533 10.139m-130.404 0-15.083 10.608m15.083-10.608h65.202m-65.202 0h-65.203m130.405 0-13.574 10.608m13.574-10.608h65.202m0 0-12.065 10.608m-133.422 0h66.711m-66.711 0h-66.71m119.204 11.11 14.217-11.11m-14.217 11.11-14.907 11.649m14.907-11.649h68.29m-54.073-11.11h66.711m-200.132 0h-66.711m66.711 0 16.59-10.608m183.542 10.608-12.638 11.11m-170.904-21.718h-65.202m152.909 33.367-15.648 12.229m15.648-12.229h69.946m13.251-11.649-13.251 11.649m0 0-13.908 12.229m-143.371 0-18.272 12.852m18.272-12.852h71.685m-71.685 0h-71.684m143.369 0-16.445 12.852m16.445-12.852h71.686m0 0-14.618 12.852m-147.025 0h73.512m-73.512 0h-73.513m129.719 13.524 17.306-13.524m-17.306 13.524-18.235 14.25m18.235-14.25h75.435m-58.129-13.524h73.513m-220.538 0h-73.512m73.512 0 20.101-12.852m200.437 12.852-15.384 13.524m-185.053-26.376h-71.686m163.069 40.626-19.242 15.038m19.242-15.038h77.461m16.209-14.25-16.209 14.25m0 0-17.103 15.038m-159.2 0-22.593 15.89m22.593-15.89h79.6m-79.6 0h-79.599m159.199 0-20.334 15.89m20.334-15.89h79.6m0 0-18.075 15.89m-163.718 0h81.859m-81.859 0h-81.859m142.195 16.821 21.523-16.821m-21.523 16.821-22.817 17.831m22.817-17.831h84.25m-62.727-16.821h81.859m-245.577 0H40.695m81.858 0 24.853-15.89m220.724 15.89-19.132 16.821m-201.592-32.711h-79.6m174.125 50.542-24.234 18.939m24.234-18.939h86.785m20.282-17.831-20.282 17.831m0 0-21.541 18.939m-178.957 0-28.65 20.151m28.65-20.151h89.479m-89.479 0H38.74m178.957 0-25.785 20.151m25.785-20.151h89.478m0 0-22.92 20.151m-184.686 0h92.343m-92.344 0H7.225m157.194 21.483 27.493-21.483m-27.493 21.483-29.372 22.954m29.372-22.954h95.398m-67.905-21.483h92.343m-277.03 0 31.515-20.151M7.225 323.538H.551m6.674 0-6.674 4.267m283.704-4.267-24.438 21.483M38.74 303.387H.55m134.497 64.588-31.453 24.58m31.453-24.58h98.662m26.108-22.954-26.108 22.954m0 0-27.959 24.58m-204.312 0h102.156m-102.156 0H.55m.887 0-.887.625m103.043-.625L69.83 418.942m33.764-26.387H205.75m0 0-30.011 26.387M33.493 447.339l36.337-28.397m-36.337 28.397h109.945m-109.945 0H.55m32.942 0L.55 473.083m69.28-54.141h105.908m-105.909 0H.55m175.189 0-32.301 28.397m0 0-34.86 30.649m0 0L70.84 511.166m37.738-33.178H.551m70.289 33.178L29.852 547.2m40.988-36.034H.55M29.853 547.2H.551m29.301 0L.551 572.962M304.97 34.78l-13 6.531m13-6.531h51.289m-51.289 0h-51.287m114.225-6.303 11.25-6.087m-11.25 6.087L356.26 34.78m11.649-6.303h50.392m-39.142-6.087h49.526m-49.526 0 10.87-5.88m-48.69 0h48.69m-48.69 0 11.318-5.687m-11.318 5.686H292.65m63.61 18.27-12.073 6.532m12.073-6.531h51.287m10.754-6.303 10.384-6.087m-10.384 6.087-10.754 6.303m21.138-12.39 10.034-5.88m-48.69 0 1.333-.723 9.176-4.964m-10.509 5.686h48.69m-31.172 18.27-11.143 6.532m91.005-24.802 8.892-5.686m-8.892 5.686h-48.69m0 0 1.23-.722 8.471-4.964M291.971 41.311h52.216m-52.216 0h-52.216m91.915 6.772 12.517-6.772m-12.517 6.772-12.987 7.027m12.987-7.027h53.18m-40.663-6.772h52.217m-156.649 0h-52.216m52.216 0 13.929-6.531m142.72 6.531-11.554 6.772M253.684 34.78h-51.288m116.287 20.33-13.485 7.295m13.485-7.295h54.178m11.989-7.027-1.475.864-10.514 6.163m0 0-12.448 7.295m-110.43 0-15.089 7.58m15.089-7.58h55.215m-55.215 0h-55.216m110.431 0-14.011 7.58m14.011-7.58h55.215m0 0-12.932 7.58m-112.587 0h56.293m-56.293 0h-56.293m98.017 7.883 14.569-7.882m-14.569 7.882-15.161 8.202m15.161-8.202h57.414m-42.845-7.882h56.294m-168.88 0h-56.294m56.294 0 16.166-7.581m152.714 7.58-13.449 7.883M194.767 62.405h-55.215M261.457 86.07l-15.789 8.543m15.789-8.543h58.58m13.995-8.202-13.995 8.202m0 0-14.575 8.543m-119.589 0-17.725 8.904m17.725-8.904h59.795m-59.795 0h-59.795m119.59 0-16.458 8.904m16.458-8.904h59.794m0 0-15.192 8.904m-122.122 0h61.062m-61.062 0h-61.06m104.951 9.29 17.171-9.29m-17.171 9.29-17.929 9.7m17.929-9.7h62.382m-45.211-9.29h61.06m-183.182 0h-61.06m61.06 0 18.99-8.904m164.192 8.904-15.849 9.29M126.078 94.613H66.284m127.826 27.894-18.741 10.139m18.741-10.139h63.76m16.551-9.7-16.551 9.7m0 0-17.298 10.139m-130.405 0-21.115 10.608m21.115-10.608h65.202m-65.202 0H44.965m130.404 0-19.606 10.608m19.606-10.608h65.203m0 0-18.099 10.608m-133.42 0h66.71m-20.537 11.11 20.537-11.11m-20.537 11.11-21.531 11.649m21.531-11.649h68.291m-47.754-11.11h66.71m0 0-18.956 11.11M44.965 132.646H.551m113.144 33.367-22.602 12.229m22.602-12.229h69.947m19.875-11.649-19.875 11.649m0 0-20.864 12.229m-143.37 0h71.685m-71.686 0H.551m18.856 0L.551 187.715m90.542-9.473-23.755 12.852m23.755-12.852h71.685m0 0-21.927 12.852m-98.51 13.524 24.997-13.524M42.34 204.618 16 218.868m26.34-14.25h75.436m-75.436 0H.551m66.787-13.524h73.513m-73.513 0H.55m140.3 0-23.074 13.524M.343 187.82l.208-.105M16 218.868h77.462m-77.462 0H.551m15.45 0-15.45 8.36m117.226-22.61-24.314 14.25m0 0-25.656 15.038m0 0-27.112 15.89m27.111-15.89H.552m11.447 32.711 28.697-16.821m-28.697 16.821H.55m11.447 0L.55 273.326m40.144-23.53H.55M99.82 34.78l-16.714 6.53m16.715-6.531h51.287m-51.287 0H48.532m117.811-6.303 14.712-6.087m-14.712 6.087-15.235 6.303m15.235-6.303h50.392m-35.68-6.087h49.525m-49.525 0 14.214-5.88m-48.69 0h48.69m-48.69 0 14.551-5.687m-14.551 5.686h-48.69m53.219 18.27-15.786 6.532m15.786-6.531h51.288m14.339-6.303 13.845-6.087m-13.845 6.087-14.339 6.303m28.184-12.39 13.379-5.88m-48.69 0h48.69m-48.69 0 13.743-5.687m-6.616 23.957-14.857 6.531m105.111-24.8 12.125-5.686M292.65 16.51h-48.691m0 0 12.935-5.686M83.106 41.311h52.216m-52.216 0H30.89m88.063 6.772 16.369-6.772m-16.369 6.772L101.97 55.11m16.983-7.027h53.18m-36.811-6.772h52.217m-156.65 0 17.643-6.531M30.89 41.31H.55m186.989 0-15.406 6.772M48.533 34.78H.55m101.42 20.33-17.634 7.295m17.634-7.295h54.178m15.985-7.027-15.985 7.027m0 0-16.596 7.295m-110.431 0-19.4 7.58m19.4-7.58h55.215m-55.215 0H.55m83.785 0-18.322 7.58m18.322-7.58h55.216m0 0-17.245 7.58m-75.345 7.883 19.052-7.882m-19.052 7.882L27.136 86.07m19.826-8.202h57.414m-57.414 0H.551m65.463-7.882H9.721m56.293 0h56.293m-112.586 0L.55 73.568m9.17-3.582H.55m121.756 0-17.931 7.882m-77.24 8.202L6.488 94.613m20.648-8.543h58.58m-58.58 0H.551m103.825-8.202-18.66 8.202m0 0-19.432 8.543m-59.796 0h59.796m-59.796 0L.551 97.069m5.937-2.456H.551m65.733 0-20.257 8.904m-21.133 9.29 21.133-9.29m-21.133 9.29-22.066 9.7m22.067-9.7H.55m45.476-9.29H.551m-.32 0h.32m2.277 18.99H.55m2.277 0L.55 123.508m-.55.242.55-.242m14.62-95.031 17.307-6.087M15.17 28.477H.55m14.617 0L.551 33.617M32.476 22.39l16.723-5.88m-16.723 5.88H.55m97.338-5.88 15.359-5.687m-15.36 5.686H49.2m0 0 16.168-5.686M49.199 16.51H.551m1692.789-5.686h47.88m-47.88 0h-47.88m84.04-5.5 2.89 1.359 8.83 4.141m-11.72-5.5h47.1m-35.38 5.5h47.89m-12.51-5.5 3.08 1.359 1.56.682 7.87 3.46m0 0h47.88m0 0h47.88m-239.41 0h-47.88m287.29 0h47.88m0 0-14.86-5.5m14.86 5.5h47.88m-62.74-5.5h47.1m-463.17 5.5h47.88m-47.88 0h-47.89m87.17-5.5 2.12 1.358 1.07.682 5.41 3.46m-8.6-5.5h47.1m-38.5 5.5h47.88m-9.38-5.5 9.38 5.5m-143.65 0h-47.88m-95.76 0h47.88m-47.88 0h-47.88m90.29-5.5.67.677.68.681.68.682 3.44 3.46m-5.47-5.5h47.1m-41.63 5.5h47.88m-6.25-5.5 6.25 5.5m-143.64 0h-47.88m-95.77 0h47.88m-47.88 0h-47.88m93.42-5.5 2.34 5.5m-2.34-5.5h47.1m-44.76 5.5h47.89m-3.13-5.5.38.677.39.681.39.682 1.97 3.46m-143.65 0H1023m-95.763 0h47.882m-47.882 0h-47.881m96.544-5.5-.781 5.5m.781-5.5h47.1m-47.881 5.5H1023m0-5.5v5.5m-143.644 0h-47.883m-95.763 0h47.881m-47.881 0h-47.882m99.673-5.5-.965 1.358-1.955 2.749-.99 1.393m3.91-5.5h47.1m-51.01 5.5h47.882m3.128-5.5-.386.677-.386.681-.389.682-1.967 3.46m-143.645 0h-47.881m-95.763 0h47.881m-47.881 0h-47.883m102.802-5.5-1.738 1.358-.874.682-4.426 3.46m7.038-5.5h47.1m-54.138 5.5h47.882m6.256-5.5-.771.677-5.485 4.822m-143.646 0H448.42m-95.763 0h47.881m-47.881 0h-47.882m105.929-5.5-2.51 1.359-1.263.682-6.393 3.46m10.166-5.5h47.1m-57.266 5.5h47.882m9.384-5.5L456.647 6l-8.227 4.822m-143.645 0h-47.881m-95.764 0h47.882m-47.882 0h-47.882m109.057-5.5-13.293 5.5m13.293-5.5h47.1m-60.393 5.5h47.882m12.511-5.5-3.089 1.359-1.555.682-7.867 3.46m-143.646 0H65.366m-31.459-5.5-16.422 5.5m16.422-5.5h47.1m-47.1 0H.551m16.934 5.5h47.882m-47.882 0L.55 16.494m16.934-5.672H.55m80.456-5.5-3.862 1.359-11.778 4.141m1899.623-5.5 3.87 1.359 11.77 4.141m0 0h47.89m0 0 16.93 5.673m-16.93-5.672h16.93m0 262.502v-6.709m0 6.709v11.122m0-17.831v-16.821m0 34.652v18.939m0 0v20.151m0-180.284v-10.608m0 10.608v10.217m0-148.147v5.5m0 0v5.672m0 0 .04.014h-.04m0-.014v.014m0 0v5.88m0 0v6.087m0 0v5.14m0 0v1.163m0 0v6.531m0 0v6.772m0 0v4.458m0 0v2.569m0 0v7.295m0 0v7.58m0 0v3.584m0 0v4.299m0 0v8.202m0 0v8.543m0 0v2.456m0 0v6.448m0 0v9.29m0 0v9.7m0 0v1.001m0 0v9.138m0 21.718v11.649m0-11.649v-.893m0 12.542v12.229m0 0v9.473m0 0v3.379m0 0v13.524m0 0v14.25m0 0v8.36m0 0v6.678m0 0v15.89m0 73.742v4.267m0 0v17.216m0 0v22.954m0 0v24.58m0 0v.625m0 0v25.762m0 0v28.397m0 0v25.744m0 0v4.905m0 0v33.178m0 0V547.2m0 0v25.762m0 0v13.514m0 0v42.976m0 0v47.226m0 0v24.699m0 0v27.437m0 0V729H.55v-.186m0-574.45v11.649m0-11.649v-.893m0 0v-10.217m0 0v-10.608m0 0v-9.138m0 0v-1.001m0 0v-9.7m0 0v-9.29m0 0v-6.448m0 0v-2.456m0 0V86.07m0 0v-8.202m0 0v-4.3m0 0v-3.582m0 0v-7.581m0 0V55.11m0 0v-2.57m0 0v-4.458m0 0V41.31m0 0v-6.53m0 0v-1.163m0 0v-5.14m0 0V22.39m0 0v-5.88m0 0H.51l.04-.015m0 .014v-.014m0 0v-5.672m0 0v-5.5m0 723.491v-27.437m0 0v-24.699m0 0v-47.225m0 0v-42.977m0 0v-13.514m0 0V547.2m0 0v-36.034m0 0v-33.178m0 0v-4.905m0 0v-25.744m0 0v-28.397m0 0V393.18m0 0v-.625m0 0v-24.58m0 0v-22.954m0 0v-17.216m0 0v-4.267m0 0v-20.151m0 0v-18.939m0 0v-11.122m0 0v-6.709m0 0v-16.821m0 0v-15.89m0 0v-6.678m0 0v-8.36m0 0v-14.25m0 0v-13.524m0 0v-3.379m0 0v-9.473m0 0v-12.229" style="mix-blend-mode:overlay"/><defs><radialGradient id="a" cx="0" cy="0" r="1" gradientTransform="matrix(0 247.5 -803.808 0 1023 312)" gradientUnits="userSpaceOnUse"><stop offset=".548" stop-color="#fff"/><stop offset="1" stop-color="#fff" stop-opacity="0"/></radialGradient></defs></svg>