<svg id="tapes" role="presentation" viewBox="0 0 25 25" xmlns="http://www.w3.org/2000/svg"><path d="M 0.667 0.555 C 0.667 0.785 0.518 0.917 0.334 0.851 C 0.149 0.783 0 0.543 0 0.313 C 0 0.083 0.149 -0.05 0.334 0.017 C 0.518 0.084 0.667 0.325 0.667 0.555 Z" fill="var(--token-19283927-7510-4023-b856-61682ade3191, rgb(202, 220, 252))" height="1px" id="yjrkCi3FE" transform="translate(6.047 13.151)" width="1px"></path><path d="M 0.667 0.555 C 0.667 0.785 0.518 0.917 0.334 0.851 C 0.149 0.783 0 0.543 0 0.313 C 0 0.083 0.149 -0.05 0.334 0.017 C 0.518 0.084 0.667 0.325 0.667 0.555 Z" fill="var(--token-a2418e68-b41d-46d1-9e27-1a488bd30077, rgb(255, 89, 0))" height="1px" id="jq3NoadgV" transform="translate(7.335 13.617)" width="1px"></path><path d="M 0.667 0.555 C 0.667 0.785 0.518 0.918 0.334 0.851 C 0.149 0.784 0 0.543 0 0.313 C 0 0.083 0.149 -0.049 0.334 0.017 C 0.518 0.084 0.667 0.325 0.667 0.555 Z" fill="var(--token-19283927-7510-4023-b856-61682ade3191, rgb(202, 220, 252))" height="1px" id="AGwKbEaeS" transform="translate(9.91 14.558)" width="1px"></path><path d="M 0.668 0.555 C 0.668 0.785 0.518 0.918 0.334 0.851 C 0.15 0.784 0 0.543 0 0.313 C 0 0.083 0.149 -0.05 0.334 0.017 C 0.518 0.085 0.668 0.325 0.668 0.555 Z" fill="var(--token-19283927-7510-4023-b856-61682ade3191, rgb(202, 220, 252))" height="1px" id="kfps_u2bq" transform="translate(4.76 9.006)" width="1px"></path><path d="M 0.667 0.555 C 0.667 0.785 0.518 0.918 0.334 0.851 C 0.149 0.784 0 0.543 0 0.313 C 0 0.083 0.149 -0.05 0.334 0.017 C 0.518 0.084 0.667 0.325 0.667 0.555 Z" fill="var(--token-a2418e68-b41d-46d1-9e27-1a488bd30077, rgb(255, 89, 0))" height="1px" id="tENrn_hIh" transform="translate(6.047 9.477)" width="1px"></path><path d="M 0.667 0.555 C 0.667 0.785 0.518 0.917 0.334 0.85 C 0.149 0.784 0 0.543 0 0.313 C 0 0.083 0.149 -0.05 0.334 0.017 C 0.518 0.084 0.667 0.325 0.667 0.555 Z" fill="var(--token-19283927-7510-4023-b856-61682ade3191, rgb(202, 220, 252))" height="1px" id="ZcZSRUrS7" transform="translate(7.335 9.943)" width="1px"></path><path d="M 0.667 0.555 C 0.667 0.785 0.518 0.918 0.334 0.851 C 0.149 0.784 0 0.543 0 0.313 C 0 0.083 0.149 -0.049 0.334 0.017 C 0.518 0.085 0.667 0.325 0.667 0.555 Z" fill="var(--token-19283927-7510-4023-b856-61682ade3191, rgb(202, 220, 252))" height="1px" id="PTDA_7pKg" transform="translate(9.91 10.884)" width="1px"></path><path d="M 0.667 0.555 C 0.667 0.785 0.518 0.918 0.334 0.851 C 0.149 0.784 0 0.543 0 0.313 C 0 0.083 0.149 -0.049 0.334 0.017 C 0.518 0.084 0.667 0.325 0.667 0.555 Z" fill="var(--token-a2418e68-b41d-46d1-9e27-1a488bd30077, rgb(255, 89, 0))" height="1px" id="J2xl7Oesw" transform="translate(11.197 11.355)" width="1px"></path><path d="M 0.069 0.025 L 0 0" fill="var(--token-19283927-7510-4023-b856-61682ade3191, rgb(202, 220, 252))" height="1px" id="iTlbQtuDT" transform="translate(8.399 5.756)" width="1px"></path><path d="M 18 3.662 L 7.908 0 L 0 2.872 L 0 5.751 L 1.08 6.144 L 0 6.536 L 0 9.414 L 1.095 9.812 L 0 10.21 L 0 13.089 L 10.09 16.756 L 18 13.881 L 18 11 L 16.908 10.603 L 18 10.206 L 18 7.325 L 16.923 6.934 L 18 6.543 Z M 7.908 0.652 L 16.796 3.877 L 10.09 6.317 L 1.203 3.087 Z M 10.09 9.418 L 16.026 7.26 L 16.797 7.54 L 10.09 9.98 L 1.203 6.75 L 1.977 6.469 Z M 0.613 5.322 L 0.613 3.524 L 9.783 6.857 L 9.783 8.655 Z M 0.613 8.985 L 0.613 7.187 L 9.783 10.521 L 9.783 12.318 Z M 9.783 15.993 L 0.613 12.66 L 0.613 10.862 L 9.783 14.195 Z M 10.09 13.655 L 1.203 10.425 L 1.992 10.138 L 10.09 13.082 L 16.011 10.929 L 16.797 11.214 Z" fill="var(--token-19283927-7510-4023-b856-61682ade3191, rgb(202, 220, 252))" height="16.7564px" id="XEYLf5Xt6" transform="translate(3.5 1)" width="18px"></path><path d="M 0.668 0.555 C 0.668 0.785 0.518 0.918 0.334 0.851 C 0.15 0.784 0 0.543 0 0.313 C 0 0.083 0.149 -0.049 0.334 0.017 C 0.518 0.084 0.668 0.325 0.668 0.555 Z" fill="var(--token-19283927-7510-4023-b856-61682ade3191, rgb(202, 220, 252))" height="1px" id="alEiZLFZa" transform="translate(4.76 5.343)" width="1px"></path><path d="M 0.667 0.555 C 0.667 0.785 0.518 0.918 0.334 0.851 C 0.15 0.784 0 0.543 0 0.313 C 0 0.083 0.149 -0.05 0.334 0.017 C 0.518 0.084 0.667 0.325 0.667 0.555 Z" fill="var(--token-19283927-7510-4023-b856-61682ade3191, rgb(202, 220, 252))" height="1px" id="VTNfjSetF" transform="translate(6.047 5.814)" width="1px"></path><path d="M 0.667 0.555 C 0.667 0.785 0.518 0.918 0.334 0.851 C 0.149 0.784 0 0.543 0 0.313 C 0 0.083 0.149 -0.05 0.334 0.017 C 0.518 0.084 0.667 0.325 0.667 0.555 Z" fill="var(--token-19283927-7510-4023-b856-61682ade3191, rgb(202, 220, 252))" height="1px" id="rr9m9lFFw" transform="translate(7.335 6.28)" width="1px"></path><path d="M 0.667 0.555 C 0.667 0.785 0.518 0.917 0.334 0.851 C 0.15 0.784 0 0.543 0 0.313 C 0 0.083 0.149 -0.049 0.334 0.017 C 0.518 0.085 0.667 0.325 0.667 0.555 Z" fill="var(--token-19283927-7510-4023-b856-61682ade3191, rgb(202, 220, 252))" height="1px" id="xKAHILk2B" transform="translate(11.197 15.025)" width="1px"></path><path d="M 0.667 0.555 C 0.667 0.785 0.518 0.918 0.334 0.85 C 0.149 0.784 0 0.543 0 0.313 C 0 0.083 0.15 -0.05 0.334 0.017 C 0.518 0.084 0.667 0.325 0.667 0.555 Z" fill="var(--token-19283927-7510-4023-b856-61682ade3191, rgb(202, 220, 252))" height="1px" id="WnXFaqXUk" transform="translate(8.622 6.75)" width="1px"></path><path d="M 0.667 0.555 C 0.667 0.785 0.518 0.918 0.334 0.851 C 0.149 0.784 0 0.543 0 0.313 C 0 0.083 0.149 -0.05 0.334 0.017 C 0.518 0.085 0.667 0.325 0.667 0.555 Z" fill="var(--token-a2418e68-b41d-46d1-9e27-1a488bd30077, rgb(255, 89, 0))" height="1px" id="Jk3d1Yqiw" transform="translate(9.91 7.221)" width="1px"></path><path d="M 0.667 0.555 C 0.667 0.785 0.518 0.918 0.334 0.851 C 0.149 0.784 0 0.543 0 0.313 C 0 0.083 0.15 -0.05 0.334 0.017 C 0.518 0.084 0.667 0.325 0.667 0.555 Z" fill="var(--token-19283927-7510-4023-b856-61682ade3191, rgb(202, 220, 252))" height="1px" id="INuRWgpki" transform="translate(11.197 7.691)" width="1px"></path><path d="M 1.769 2.292 C 1.463 2.403 1.125 2.484 0.842 2.644 C 0.558 2.805 0.397 3.11 0.276 3.4 C -0.049 4.181 -0.037 5.132 0.059 5.957 C 0.167 6.884 0.428 7.857 1.006 8.609 C 1.478 9.224 2.319 9.758 3.128 9.523 C 3.79 9.33 4.042 8.56 4.167 7.961 C 4.359 7.045 4.369 6.09 4.382 5.159 C 4.396 4.207 4.378 3.251 4.456 2.301 C 4.484 1.965 4.528 1.627 4.63 1.305 C 4.668 1.188 4.688 1.14 4.766 1.025 C 4.733 1.074 4.814 0.977 4.834 0.959 C 4.778 1.008 4.832 0.964 4.847 0.956 C 4.877 0.941 4.873 0.942 4.835 0.959 C 4.905 0.934 4.976 0.908 5.047 0.882 C 5.296 0.792 5.545 0.701 5.794 0.611 C 6.163 0.477 6.004 -0.115 5.631 0.02 C 5.068 0.225 4.393 0.318 4.127 0.916 C 3.818 1.613 3.819 2.451 3.796 3.2 C 3.765 4.192 3.784 5.185 3.743 6.177 C 3.711 6.939 3.691 7.826 3.353 8.519 C 3.291 8.645 3.23 8.733 3.154 8.811 C 3.084 8.882 3.014 8.918 2.937 8.94 C 2.856 8.964 2.679 8.961 2.536 8.935 C 2.34 8.9 2.163 8.823 1.995 8.719 C 1.263 8.266 0.941 7.301 0.767 6.509 C 0.582 5.662 0.542 4.725 0.763 3.881 C 0.801 3.735 0.849 3.595 0.917 3.463 C 0.974 3.352 1.065 3.234 1.105 3.204 C 1.287 3.066 1.651 2.984 1.932 2.883 C 2.301 2.748 2.142 2.156 1.769 2.292 Z" fill="var(--token-a2418e68-b41d-46d1-9e27-1a488bd30077, rgb(255, 89, 0))" height="9.579279261902322px" id="EElWqqU0S" transform="translate(4.445 7.357)" width="6.0035381615510675px"></path><path d="M 1.334 2.287 C 1.047 2.392 0.668 2.455 0.428 2.638 C 0.143 2.853 0.074 3.211 0.031 3.546 C -0.086 4.458 0.138 5.474 0.535 6.294 C 0.884 7.014 1.659 7.74 2.524 7.421 C 3.294 7.137 3.451 6.185 3.541 5.476 C 3.685 4.347 3.601 3.193 3.81 2.072 C 3.876 1.717 3.992 1.234 4.281 1.027 C 4.566 0.823 5.01 0.738 5.359 0.611 C 5.728 0.477 5.569 -0.116 5.196 0.02 C 4.528 0.263 3.825 0.395 3.483 1.077 C 3.079 1.884 3.084 2.888 3.043 3.768 C 3.003 4.614 3.055 5.604 2.71 6.398 C 2.598 6.656 2.438 6.852 2.194 6.875 C 1.828 6.911 1.523 6.682 1.314 6.402 C 0.805 5.718 0.621 4.762 0.622 3.926 C 0.622 3.756 0.634 3.587 0.668 3.421 C 0.682 3.35 0.704 3.281 0.729 3.213 C 0.714 3.252 0.815 3.093 0.765 3.151 C 0.815 3.093 0.715 3.179 0.775 3.14 C 0.66 3.214 0.948 3.077 0.946 3.078 C 1.075 3.031 1.204 2.984 1.334 2.937 C 1.388 2.917 1.442 2.898 1.497 2.878 C 1.865 2.744 1.706 2.152 1.334 2.287 Z" fill="var(--token-a2418e68-b41d-46d1-9e27-1a488bd30077, rgb(255, 89, 0))" height="7.498717023814734px" id="eerSf8haT" transform="translate(6.168 11.501)" width="5.568420017875578px"></path></svg>