<svg id="telescope" role="presentation" viewBox="0 0 25 25" xmlns="http://www.w3.org/2000/svg"><path d="M 7.293 6.254 C 7.243 6.238 7.2 6.24 7.163 6.257 L 7.163 6.257 C 6.976 6.34 6.907 6.772 6.772 7.072 C 6.692 7.246 6.587 7.377 6.422 7.368 C 6.34 7.364 6.264 7.344 6.194 7.315 C 5.913 7.199 5.707 6.94 5.452 6.94 C 5.377 6.941 5.298 6.963 5.213 7.017 C 5.113 7.081 5.006 7.116 4.898 7.136 C 4.689 7.175 4.477 7.157 4.312 7.176 C 4.178 7.192 4.075 7.232 4.033 7.344 C 3.973 7.508 3.871 7.39 3.752 7.272 C 3.643 7.155 3.542 7.029 3.444 7.165 C 3.44 7.169 3.437 7.174 3.434 7.178 C 3.36 7.283 3.282 7.342 3.191 7.368 C 3.088 7.397 2.97 7.384 2.822 7.346 C 2.776 7.334 2.727 7.319 2.675 7.303 C 2.602 7.28 2.508 7.269 2.402 7.268 C 2.287 7.267 2.157 7.278 2.023 7.299 C 1.903 7.317 1.77 7.347 1.655 7.379 C 1.568 7.403 1.487 7.436 1.418 7.479 C 1.332 7.534 1.267 7.604 1.236 7.688 C 1.232 7.697 1.229 7.706 1.227 7.715 C 1.196 7.822 1.144 7.874 1.079 7.893 C 1.007 7.915 0.919 7.898 0.826 7.872 C 0.721 7.843 0.61 7.804 0.521 7.791 C 0.486 7.786 0.456 7.784 0.432 7.786 C 0.373 7.792 0.309 7.789 0.243 7.794 C 0.215 7.796 0.163 7.786 0.114 7.77 C 0.114 7.77 0.113 7.77 0.113 7.77 C 0.052 7.751 -0.004 7.715 0 7.683 C 0.012 7.595 0.034 7.48 0.065 7.334 C 0.086 7.232 0.112 7.114 0.138 6.976 C 0.145 6.941 0.153 6.909 0.163 6.879 C 0.22 6.695 0.306 6.632 0.399 6.602 C 0.493 6.571 0.599 6.573 0.72 6.524 C 0.796 6.493 0.878 6.442 0.971 6.352 C 0.975 6.349 0.978 6.345 0.982 6.342 C 1.066 6.259 1.147 6.17 1.218 6.085 C 1.292 5.979 1.331 5.88 1.401 5.788 C 1.463 5.702 1.534 5.628 1.634 5.579 C 1.718 5.537 1.823 5.513 1.961 5.513 C 1.974 5.513 1.986 5.513 1.999 5.514 C 2.132 5.518 2.223 5.47 2.295 5.395 C 2.393 5.294 2.455 5.142 2.541 4.995 C 2.612 4.867 2.732 4.731 2.878 4.661 C 3.005 4.596 3.197 4.585 3.46 4.694 C 3.491 4.707 3.522 4.719 3.551 4.729 C 3.858 4.833 4.025 4.763 4.145 4.608 C 4.294 4.416 4.37 4.095 4.531 3.828 C 4.614 3.691 4.72 3.569 4.868 3.486 C 4.913 3.461 4.959 3.439 5.007 3.42 C 5.177 3.353 5.363 3.324 5.552 3.312 C 5.746 3.3 5.925 3.312 6.118 3.317 L 6.118 3.317 C 6.407 3.319 6.674 3.33 6.876 3.299 C 6.957 3.286 7.028 3.267 7.085 3.238 C 7.219 3.17 7.365 3.087 7.522 3.003 C 7.717 2.9 7.928 2.795 8.157 2.713 C 8.325 2.653 8.503 2.606 8.693 2.58 C 8.74 2.574 8.787 2.564 8.833 2.552 C 9.043 2.495 9.244 2.382 9.443 2.258 C 9.636 2.137 9.807 2.016 10.012 1.91 L 10.012 1.91 C 10.113 1.858 10.207 1.817 10.306 1.785 C 10.402 1.754 10.499 1.735 10.599 1.728 C 10.603 1.728 10.608 1.728 10.613 1.727 C 10.714 1.721 10.818 1.713 10.923 1.702 C 11.022 1.692 11.122 1.681 11.221 1.666 C 11.318 1.653 11.415 1.636 11.509 1.618 C 11.611 1.594 11.688 1.587 11.791 1.552 L 11.791 1.552 C 11.848 1.538 11.885 1.541 11.944 1.518 C 12.002 1.499 12.063 1.474 12.124 1.445 C 12.191 1.414 12.259 1.38 12.325 1.346 C 12.403 1.307 12.478 1.268 12.549 1.234 C 12.571 1.223 12.593 1.213 12.615 1.203 C 12.679 1.174 12.739 1.147 12.796 1.122 C 12.889 1.083 12.983 1.039 13.054 1.011 C 13.11 0.982 13.171 0.954 13.209 0.94 C 13.254 0.923 13.29 0.908 13.323 0.893 C 13.354 0.879 13.382 0.863 13.405 0.846 C 13.426 0.831 13.444 0.814 13.455 0.797 C 13.465 0.782 13.47 0.766 13.467 0.756 C 13.469 0.739 13.442 0.759 13.438 0.747 C 13.443 0.723 13.45 0.695 13.457 0.666 C 13.467 0.621 13.482 0.579 13.501 0.536 C 13.529 0.473 13.566 0.412 13.614 0.354 C 13.658 0.299 13.712 0.247 13.775 0.2 C 13.836 0.154 13.906 0.112 13.986 0.078 C 14.067 0.043 14.158 0.016 14.26 0.005 C 14.309 -0.001 14.359 -0.002 14.411 0.004 C 14.74 0.074 14.527 0.368 14.639 0.455 C 14.641 0.467 14.641 0.479 14.641 0.491 C 14.638 0.54 14.62 0.584 14.603 0.627 C 14.582 0.678 14.562 0.729 14.567 0.791 C 14.571 0.84 14.592 0.896 14.644 0.965 C 14.681 1.015 14.716 1.061 14.749 1.104 C 14.854 1.239 14.935 1.341 14.978 1.418 C 15.019 1.495 15.03 1.537 14.989 1.57 C 14.945 1.645 14.797 1.821 14.702 1.872 C 14.622 1.926 14.538 1.963 14.456 1.985 C 14.443 1.989 14.431 1.992 14.419 1.995 C 14.329 2.018 14.265 2.037 14.218 2.06 C 14.163 2.086 14.13 2.117 14.112 2.152 C 14.091 2.193 14.09 2.239 14.107 2.281 C 14.116 2.336 14.193 2.352 14.242 2.376 C 14.27 2.476 14.334 2.514 14.284 2.521 C 14.276 2.521 14.267 2.52 14.257 2.518 C 14.195 2.506 14.102 2.459 13.996 2.475 C 13.942 2.483 13.884 2.51 13.82 2.575 C 13.778 2.617 13.735 2.674 13.684 2.756 C 13.645 2.818 13.602 2.894 13.547 2.989 C 13.51 3.056 13.457 3.142 13.398 3.233 C 13.392 3.245 13.385 3.255 13.379 3.265 L 13.379 3.265 C 13.307 3.396 13.2 3.541 13.121 3.652 C 13.022 3.785 12.926 3.901 12.834 4.005 C 12.726 4.127 12.624 4.232 12.53 4.323 C 12.414 4.435 12.31 4.527 12.217 4.606 C 12.1 4.706 12 4.786 11.914 4.858 C 11.912 4.86 11.91 4.862 11.907 4.863 C 11.826 4.928 11.703 4.977 11.568 5.015 L 11.568 5.015 C 11.349 5.077 11.05 5.135 10.788 5.212 C 10.599 5.269 10.418 5.342 10.269 5.452 C 10.218 5.489 10.16 5.527 10.096 5.564 C 9.901 5.677 9.654 5.787 9.403 5.893 C 9.162 5.996 8.918 6.096 8.711 6.199 C 8.523 6.292 8.366 6.388 8.267 6.491 C 8.196 6.565 8.132 6.606 8.072 6.623 C 7.828 6.691 7.648 6.366 7.293 6.254 Z" fill="var(--token-a2418e68-b41d-46d1-9e27-1a488bd30077, rgb(255, 89, 0))" height="7.903207139372943px" id="RJyltUSSE" transform="translate(5.537 1.701)" width="15.01503377476311px"></path><path d="M 11.853 9.931 L 11.853 8.829 L 16.422 7.168 C 17.396 6.878 18 5.877 18 4.552 C 18 4.017 17.904 3.471 17.714 2.929 C 17.249 1.6 16.303 0.535 15.246 0.15 C 14.774 -0.021 14.299 -0.046 13.871 0.077 L 13.861 0.08 L 7.671 2.331 L 7.671 2.331 C 6.964 2.545 6.454 3.135 6.229 3.952 L 3.344 5 L 3.344 5 C 2.695 5.2 2.27 5.822 2.198 6.658 L 0.796 7.167 L 0.796 7.167 C 0.341 7.311 0.058 7.768 0.058 8.366 C 0.058 9.187 0.586 10.021 1.261 10.267 C 1.389 10.313 1.519 10.337 1.645 10.337 C 1.738 10.337 1.828 10.325 1.918 10.299 C 1.946 10.291 1.975 10.28 2.007 10.267 L 3.522 9.716 C 3.725 9.874 3.944 10 4.173 10.083 C 4.377 10.157 4.58 10.195 4.778 10.195 C 4.921 10.195 5.061 10.175 5.191 10.137 C 5.239 10.123 5.289 10.105 5.342 10.083 L 8.232 9.032 C 8.433 9.162 8.642 9.268 8.855 9.346 C 9.131 9.446 9.406 9.496 9.674 9.496 C 9.673 9.496 9.674 9.496 9.674 9.496 C 9.736 9.496 9.797 9.492 9.858 9.487 L 9.858 10.656 L 0 14.24 L 0 16.022 L 5.411 18 L 18 13.423 L 18 11.641 L 12.585 9.665 Z M 14.051 0.663 C 14.355 0.577 14.687 0.599 15.037 0.726 C 15.912 1.044 16.735 1.988 17.135 3.131 C 17.136 3.132 17.136 3.133 17.136 3.135 L 11.531 5.173 C 11.081 3.888 10.182 2.852 9.168 2.438 Z M 1.784 9.697 C 1.768 9.703 1.754 9.708 1.746 9.711 C 1.714 9.72 1.681 9.724 1.646 9.724 C 1.591 9.724 1.531 9.713 1.47 9.691 C 1.038 9.533 0.672 8.927 0.672 8.366 C 0.672 8.047 0.796 7.804 0.986 7.749 C 1.017 7.74 1.05 7.736 1.085 7.736 C 1.14 7.736 1.199 7.747 1.261 7.769 C 1.56 7.878 1.85 8.225 1.983 8.634 C 2.033 8.788 2.059 8.942 2.059 9.094 C 2.059 9.392 1.953 9.624 1.784 9.697 Z M 3.12 8.23 L 2.562 8.433 C 2.425 8.019 2.179 7.662 1.878 7.425 L 3.418 6.866 C 3.497 6.845 3.587 6.853 3.684 6.888 C 3.983 6.997 4.273 7.344 4.406 7.752 C 4.407 7.755 4.407 7.758 4.408 7.762 Z M 5.115 9.514 C 5.081 9.528 5.051 9.54 5.023 9.548 C 4.946 9.57 4.863 9.582 4.779 9.582 C 4.653 9.582 4.519 9.556 4.383 9.507 C 4.339 9.491 4.295 9.472 4.251 9.451 L 4.35 9.415 C 4.81 9.275 5.096 8.815 5.096 8.213 C 5.096 7.998 5.06 7.779 4.989 7.562 C 4.796 6.967 4.376 6.488 3.893 6.312 C 3.671 6.232 3.445 6.22 3.239 6.279 L 2.855 6.419 C 2.958 5.987 3.199 5.68 3.535 5.582 C 3.612 5.559 3.694 5.548 3.778 5.548 C 3.904 5.548 4.037 5.573 4.173 5.623 C 4.782 5.844 5.345 6.508 5.608 7.314 C 5.707 7.617 5.758 7.92 5.758 8.214 C 5.758 8.855 5.517 9.341 5.115 9.514 Z M 6.188 7.115 C 5.902 6.244 5.332 5.527 4.663 5.173 L 7.871 4.007 C 8.063 3.953 8.276 3.968 8.501 4.049 C 9.11 4.271 9.673 4.936 9.936 5.741 C 9.937 5.745 9.938 5.748 9.939 5.751 Z M 9.066 8.77 C 9.048 8.763 9.03 8.755 9.013 8.749 L 9.531 8.56 C 10.251 8.344 10.698 7.61 10.698 6.641 C 10.698 6.283 10.638 5.916 10.519 5.552 C 10.195 4.559 9.502 3.763 8.711 3.474 C 8.361 3.347 8.009 3.329 7.691 3.421 L 6.991 3.675 C 7.19 3.291 7.488 3.022 7.862 2.913 C 7.984 2.877 8.113 2.859 8.246 2.859 C 8.442 2.859 8.647 2.898 8.856 2.974 C 9.731 3.292 10.554 4.236 10.953 5.378 C 11.12 5.855 11.205 6.333 11.205 6.799 C 11.205 7.767 10.832 8.506 10.206 8.777 C 10.156 8.799 10.107 8.817 10.061 8.83 C 9.758 8.918 9.416 8.897 9.066 8.77 Z M 11.24 9.052 L 11.24 12.402 C 11.194 12.436 11.063 12.494 10.856 12.494 C 10.649 12.494 10.519 12.436 10.472 12.402 L 10.472 9.331 Z M 5.105 17.236 L 0.613 15.594 L 0.613 14.893 L 5.105 16.535 Z M 17.386 12.994 L 5.718 17.236 L 5.718 16.535 L 17.386 12.293 Z M 5.412 15.994 L 1.201 14.455 L 9.859 11.308 L 9.859 12.445 C 9.859 12.828 10.279 13.107 10.856 13.107 C 11.434 13.107 11.853 12.828 11.853 12.445 L 11.853 10.583 L 12.584 10.318 L 16.798 11.855 Z" fill="var(--token-73d49074-7cb1-4544-8200-13a6de5ede41, rgb(0, 22, 102))" height="17.999778897593774px" id="w9rNu6_j2" transform="translate(3.502 1)" width="18px"></path></svg>